<?xml version="1.0" encoding="utf-8"?>
<!-- Generator: Adobe Illustrator 22.0.1, SVG Export Plug-In . SVG Version: 6.00 Build 0)  -->
<svg version="1.1" id="Capa_1" xmlns="http://www.w3.org/2000/svg" xmlns:xlink="http://www.w3.org/1999/xlink" x="0px" y="0px"
	 viewBox="0 0 120.6 121.1" style="enable-background:new 0 0 120.6 121.1;" xml:space="preserve">
<style type="text/css">
	.st0{fill:#1D1D1B;}
	.st1{fill:#FFFFFF;}
	.st2{fill:#233E96;}
	.st3{fill:#221F20;}
	.st4{fill:#1BAD7E;}
	.st5{display:none;}
	.st6{display:inline;}
</style>
<g>
	<g>
		<path d="M2012.2,936.3c1.3,0,2.3-1,2.3-2.3v-73.8c0-1.3-1-2.3-2.3-2.3s-2.3,1-2.3,2.3V934C2009.8,935.2,2010.9,936.3,2012.2,936.3
			z"/>
	</g>
	<g>
		<path d="M2016.8,904.7c-4-1.6-7-7.1-7-11v-25.9c0-2.4,1.1-3.7,2-4.3c1.1-0.8,3.2-1.4,6.7,0c7.4,3,15-0.1,23-3.3
			c8.5-3.4,17.4-7,26.4-3.3c4,1.6,7,7.1,7,11v25.9c0,2.4-1.1,3.7-2,4.3c-1.1,0.8-3.2,1.4-6.7,0c-7.4-3-15,0.1-23,3.3
			c-6,2.4-12.1,4.9-18.3,4.9C2022.3,906.3,2019.6,905.8,2016.8,904.7z M2068,893.8c1.3,0.5,2.1,0.5,2.3,0.5c0-0.1,0.1-0.2,0.1-0.5
			v-25.9c0-2.2-2-5.9-4.1-6.7c-7.4-3-15,0.1-23,3.3c-8.5,3.4-17.4,7-26.4,3.3c-1.3-0.5-2.1-0.5-2.3-0.5c0,0.1-0.1,0.2-0.1,0.5v25.9
			c0,2.2,2,5.9,4,6.7l0,0c7.4,3,15-0.1,23-3.3c6-2.4,12.1-4.9,18.3-4.9C2062.6,892.2,2065.3,892.7,2068,893.8z"/>
	</g>
</g>
<g>
	<g>
		<path d="M2248.9,933.6c-20.9,0-37.8-17-37.8-37.8c0-20.9,17-37.8,37.8-37.8c20.9,0,37.8,17,37.8,37.8
			C2286.7,916.7,2269.8,933.6,2248.9,933.6z M2248.9,862.6c-18.3,0-33.2,14.9-33.2,33.2s14.9,33.2,33.2,33.2s33.2-14.9,33.2-33.2
			C2282.1,877.5,2267.2,862.6,2248.9,862.6z"/>
	</g>
	<g>
		<path d="M2249.5,869.8c-0.1-0.7-1.1-0.7-1.2,0l-5.2,26l0,0l5.2,26c0.1,0.7,1.1,0.7,1.2,0l5.2-26l0,0L2249.5,869.8z M2248.9,897.7
			c-1.1,0-1.9-0.9-1.9-1.9c0-1.1,0.9-1.9,1.9-1.9s1.9,0.9,1.9,1.9C2250.8,896.9,2250,897.7,2248.9,897.7z"/>
	</g>
</g>
<g>
	<g>
		<g>
			<path d="M1864.8,880.8L1864.8,880.8c-2.2,1.6-3.1,4.3-2.3,6.9c1.3,4.6,1.7,9.5,0.9,14.5c-2.9,18.1-19.9,30.4-38,27.5
				s-30.4-19.9-27.5-38s19.9-30.4,38-27.5c5,0.8,9.6,2.7,13.5,5.4c2.2,1.5,5.1,1.5,7.2-0.1l0,0c-5.4-5.2-12.4-8.8-20.4-10
				c-20.5-3.1-39.9,11.2-43,31.7s10.9,39.8,31.4,43c20.6,3.3,40-10.8,43.3-31.4C1869.2,895.1,1868,887.5,1864.8,880.8z"/>
		</g>
	</g>
	<g>
		<g>
			<path d="M1830.6,907.5c-0.6,0-1.2-0.2-1.6-0.7c-0.9-0.9-0.9-2.4,0-3.3l46.1-46.1c0.9-0.9,2.4-0.9,3.3,0s0.9,2.4,0,3.3l-46.1,46.1
				C1831.8,907.3,1831.2,907.5,1830.6,907.5z"/>
		</g>
		<g>
			<path d="M1830.5,907.5c-0.6,0-1.2-0.2-1.6-0.7l-12.4-12.4c-0.9-0.9-0.9-2.4,0-3.3c0.9-0.9,2.4-0.9,3.3,0l12.4,12.4
				c0.9,0.9,0.9,2.4,0,3.3C1831.7,907.3,1831.1,907.5,1830.5,907.5z"/>
		</g>
	</g>
</g>
<g>
	<g>
		<g>
			<path d="M1961.2,883.6L1961.2,883.6c-1.9,1.9-2.4,4.7-1.2,7.1c2.1,4.3,3.2,9.1,3.2,14.2c0,18.3-14.9,33.2-33.2,33.2
				c-18.3,0-33.2-14.9-33.2-33.2s14.9-33.2,33.2-33.2c5.1,0,9.9,1.2,14.2,3.2c2.4,1.1,5.3,0.7,7.1-1.2l0,0
				c-6.2-4.2-13.6-6.7-21.7-6.6c-20.8,0.2-37.6,17.3-37.5,38.1c0.2,20.7,17.1,37.5,37.8,37.5c20.9,0,37.8-17,37.8-37.8
				C1967.8,897.1,1965.4,889.7,1961.2,883.6z"/>
		</g>
	</g>
	<g>
		<g>
			<path d="M1950.6,894.2L1950.6,894.2c-2,2-2.8,4.7-2.3,7.5c0.2,1.3,0.3,2.6,0.3,3.9c-0.3,9.3-7.6,17-16.8,17.9
				c-11.7,1.1-21.4-8.7-20.3-20.3c0.9-9.2,8.6-16.5,17.9-16.8c1.3,0,2.6,0.1,3.9,0.3c2.7,0.5,5.5-0.3,7.5-2.3l0,0
				c-3.7-1.9-7.9-2.9-12.3-2.6c-11.5,0.8-20.9,10.1-21.6,21.6c-0.9,13.7,10.2,25.2,23.9,24.8c11.9-0.4,21.7-9.8,22.5-21.6
				C1953.5,902.1,1952.5,897.9,1950.6,894.2z"/>
		</g>
	</g>
	<g>
		<path d="M1930,907.3c-0.6,0-1.2-0.2-1.6-0.7c-0.9-0.9-0.9-2.4,0-3.3l46.1-46.1c0.9-0.9,2.4-0.9,3.3,0s0.9,2.4,0,3.3l-46.1,46.1
			C1931.2,907.1,1930.6,907.3,1930,907.3z"/>
	</g>
	<g>
		<path d="M1932.2,908.3L1932.2,908.3c3.3-0.9,4.4-5,2-7.4l0,0c-2.4-2.4-6.5-1.3-7.4,2l0,0C1925.8,906.1,1928.8,909.1,1932.2,908.3z
			"/>
	</g>
	<g>
		<path d="M1976.6,861.7c-0.9,0-1.8-0.4-2.4-1c-0.9-0.9-1.2-2.1-0.9-3.3l1.9-6.9c0.3-1.2,1.6-2,2.8-1.6c1.2,0.3,2,1.6,1.6,2.8
			l-1.3,4.9l4.9-1.3c1.2-0.3,2.5,0.4,2.8,1.6c0.3,1.2-0.4,2.5-1.6,2.8l-6.9,1.9C1977.2,861.7,1976.9,861.7,1976.6,861.7z"/>
	</g>
</g>
<g>
	<g>
		<path class="st0" d="M2133.3,898.8c-7.4,0-13.4-6-13.4-13.4s6-13.4,13.4-13.4s13.4,6,13.4,13.4
			C2146.7,892.7,2140.7,898.8,2133.3,898.8z M2133.3,875.8c-5.3,0-9.6,4.3-9.6,9.6s4.3,9.6,9.6,9.6s9.6-4.3,9.6-9.6
			C2142.9,880.1,2138.6,875.8,2133.3,875.8z"/>
	</g>
	<g>
		<g>
			<g>
				<path class="st0" d="M2158,891.1c-2.3,0-4.6-0.6-6.6-1.7c-0.9-0.5-1.3-1.7-0.7-2.6c0.5-0.9,1.7-1.3,2.6-0.7
					c1.4,0.8,3,1.2,4.7,1.2c5.3,0,9.6-4.3,9.6-9.6s-4.3-9.6-9.6-9.6c-3.7,0-7,2.1-8.6,5.4c-0.5,1-1.6,1.4-2.6,0.9s-1.4-1.6-0.9-2.6
					c2.3-4.7,6.9-7.6,12.1-7.6c7.4,0,13.4,6,13.4,13.4C2171.4,885,2165.4,891.1,2158,891.1z"/>
			</g>
			<g>
				<path class="st0" d="M2181.1,919.7h-20c-1.1,0-1.9-0.9-1.9-1.9s0.9-1.9,1.9-1.9h16c-1-9.7-9.2-17.3-19.1-17.3
					c-3.7,0-7.2,1-10.3,3c-0.9,0.6-2.1,0.3-2.7-0.6c-0.6-0.9-0.3-2.1,0.6-2.7c3.7-2.4,8-3.6,12.4-3.6c12.7,0,23.1,10.3,23.1,23.1
					V919.7z"/>
			</g>
		</g>
	</g>
	<g>
		<path class="st0" d="M2156.4,927.4h-46.1v-1.9c0-12.7,10.3-23.1,23.1-23.1s23.1,10.3,23.1,23.1v1.9H2156.4z M2114.2,923.6h38.2
			c-1-9.7-9.2-17.3-19.1-17.3C2123.4,906.3,2115.2,913.9,2114.2,923.6z"/>
	</g>
</g>
<g>
	<path class="st1" d="M2035,171.5c-0.7,0-1.3-0.2-1.9-0.6l0,0c-0.7-0.5-1.3-1.3-1.7-2.4v-0.2l0,0c-0.4-1.9-0.9-3.4-1.7-4.5
		c-0.5-0.8-1.1-1.2-1.7-1.3l0,0l0,0c-0.6,0.1-1.1,0.5-1.7,1.3l0,0c-0.7,1.1-1.3,2.7-1.6,4.5l0,0v0.2c-0.3,1-0.9,1.8-1.7,2.4l0,0
		c-0.5,0.4-1.1,0.6-1.8,0.6c-0.7,0-1.4-0.2-1.9-0.6c-0.8-0.6-1.3-1.5-1.6-2.6l-0.1-0.5c-0.8-3-1.4-4.9-2.1-6.7
		c-0.6-1.8-1.4-3.5-2.7-6.1c-1.8-3.4-3-6.8-3.4-9.6c-0.3-3.1,0.4-5.5,2.3-7c1.6-1.4,3.2-2,5-2c0.1,0,0.2,0,0.4,0
		c1.5,0,2.7,0.4,4,0.8c0.9,0.3,2.2,0.5,4.1,0.7c1.4,0.1,2.6,0.2,3,0.2s1.6-0.1,3-0.2c1.9-0.2,3.2-0.4,4.1-0.7c1.3-0.4,2.6-0.8,4-0.8
		c0.1,0,0.2,0,0.3,0c1.7,0,3.4,0.7,5,2c1.9,1.5,2.6,3.8,2.3,7c-0.3,2.7-1.5,6.1-3.4,9.6c-1.3,2.6-2.1,4.3-2.7,6.1
		c-0.7,1.8-1.2,3.8-2.1,6.7l-0.1,0.5c-0.3,1.2-0.9,2.1-1.6,2.6C2036.2,171.4,2035.5,171.5,2035,171.5z"/>
	<path class="st2" d="M2043.5,139.6c-2.9-2.4-5.3-1.8-7.9-0.9c-2.3,0.7-6.8,0.9-7.5,0.9s-5.2-0.2-7.5-0.9c-2.5-0.8-5-1.5-7.9,0.9
		s-2.1,8,1.5,14.6c2.5,5.1,3.2,7.2,5,13.7c0.8,2.9,3.3,2.5,4,0.1c0.7-3.7,2.3-6.9,4.9-7.1c2.6,0.2,4.3,3.4,4.9,7.1
		c0.7,2.3,3.2,2.8,4-0.1c1.8-6.5,2.5-8.5,5-13.7C2045.6,147.6,2046.3,142,2043.5,139.6L2043.5,139.6z M2039.5,136.2
		c1.6,0,3.3,0.6,5.1,2.1c2,1.6,2.7,4,2.3,7.1c-0.3,2.7-1.5,6.1-3.4,9.6c-1.2,2.5-2,4.2-2.7,6.1c-0.7,1.9-1.3,4-2.2,7.2
		c-0.3,1.2-0.9,2.1-1.6,2.7c-0.7,0.5-1.4,0.7-2,0.7c-0.7,0-1.4-0.2-2-0.7c-0.8-0.5-1.4-1.4-1.8-2.5v-0.1v-0.1
		c-0.3-1.8-0.8-3.3-1.6-4.4c-0.5-0.7-1-1.2-1.6-1.2c-0.6,0.1-1.1,0.5-1.6,1.2c-0.7,1.1-1.3,2.7-1.6,4.4v0.1v0.1
		c-0.3,1.1-1,2-1.8,2.5c-0.6,0.5-1.2,0.7-1.9,0.7c-0.7,0-1.4-0.2-2-0.7c-0.7-0.5-1.4-1.4-1.7-2.7c-0.9-3.2-1.5-5.3-2.2-7.2
		s-1.4-3.6-2.7-6.1c-1.9-3.5-3.1-6.9-3.4-9.6c-0.3-3.1,0.4-5.5,2.3-7.1c1.8-1.5,3.4-2.1,5.1-2.1c1.6-0.1,3,0.3,4.4,0.8
		c1,0.3,2.6,0.5,4,0.7c1.4,0.1,2.6,0.2,3,0.2s1.6-0.1,3-0.2c1.4-0.1,3-0.3,4-0.7l0,0C2036.5,136.6,2037.9,136.2,2039.5,136.2
		L2039.5,136.2z"/>
	<path class="st3" d="M1897.7,202.2h4.9v34.4h-4.9V202.2z M1937.7,202.2h4.6v34.4h-4.9v-26.8l-10.6,13.3h-0.9l-10.7-13.3v26.8h-4.9
		v-34.4h4.6l11.5,14.1L1937.7,202.2z M1961.4,236.6h-11.6v-34.4h9c2.9,0,5.1,0.3,6.7,1.1s2.8,1.8,3.6,3.2c0.8,1.3,1.2,2.9,1.2,4.6
		c0,3.4-1.8,5.8-5.3,7.3c2.5,0.5,4.6,1.5,6.1,3.1s2.2,3.4,2.2,5.7c0,1.8-0.5,3.3-1.4,4.7s-2.2,2.5-4,3.4S1964,236.6,1961.4,236.6
		L1961.4,236.6z M1958.9,206.5h-4.3v10.3h3.3c2.6,0,4.5-0.5,5.6-1.5s1.7-2.3,1.7-3.9C1965.3,208.2,1963.1,206.5,1958.9,206.5
		L1958.9,206.5z M1959.3,221.3h-4.6v10.9h4.9c2.7,0,4.6-0.3,5.5-0.7c1-0.5,1.8-1.1,2.3-2c0.6-0.9,0.8-1.9,0.8-2.9s-0.3-2-0.9-2.9
		c-0.6-0.8-1.5-1.5-2.6-1.9C1963.5,221.5,1961.7,221.3,1959.3,221.3L1959.3,221.3z M1990.2,202h3.5l15.4,34.6h-5l-4.6-10.2h-14.6
		l-4.4,10.2h-5L1990.2,202z M1997.4,222l-5.5-12.5l-5.1,12.5H1997.4z M2040.3,202.2h4.7v34.4h-4.3l-23-26.5v26.5h-4.6v-34.4h4
		l23.3,26.7L2040.3,202.2L2040.3,202.2z M2063.3,202h3.4l15.4,34.6h-5l-4.6-10.2h-14.6l-4.4,10.2h-5L2063.3,202z M2070.6,222
		l-5.5-12.5L2060,222H2070.6z M2113.7,228.6v5.5c-3.6,2-7.8,2.9-12.6,2.9c-3.8,0-7.1-0.8-9.8-2.3s-4.8-3.6-6.4-6.4
		c-1.6-2.7-2.3-5.6-2.3-8.8c0-5,1.8-9.2,5.4-12.6c3.6-3.4,7.9-5.1,13.2-5.1c3.6,0,7.6,0.9,12,2.8v5.3c-4-2.3-7.9-3.4-11.8-3.4
		c-4,0-7.2,1.2-9.8,3.7s-3.9,5.6-3.9,9.4s1.2,6.9,3.8,9.3c2.5,2.5,5.9,3.6,9.8,3.6C2105.6,232.4,2109.7,231.2,2113.7,228.6
		L2113.7,228.6z M2136.7,201.6c5.3,0,9.8,1.7,13.3,5.1c3.5,3.3,5.3,7.5,5.3,12.6s-1.8,9.3-5.3,12.6c-3.6,3.3-8.1,5-13.5,5
		c-5.2,0-9.5-1.7-13-5s-5.2-7.5-5.2-12.5c0-5.1,1.8-9.4,5.2-12.8C2127,203.3,2131.3,201.6,2136.7,201.6L2136.7,201.6z M2136.9,206.3
		c-3.9,0-7.2,1.2-9.7,3.7s-3.8,5.6-3.8,9.4c0,3.7,1.3,6.8,3.8,9.2c2.5,2.5,5.7,3.7,9.6,3.7c3.8,0,7-1.2,9.6-3.8
		c2.6-2.5,3.8-5.6,3.8-9.4c0-3.6-1.2-6.7-3.8-9.2C2143.8,207.6,2140.7,206.3,2136.9,206.3L2136.9,206.3z"/>
	<path class="st3" d="M1911,258.1v-1c-0.8,0.6-1.5,1-2,1.3c-1,0.5-2.1,0.7-3.4,0.7c-2,0-3.7-0.7-5-2c-1.3-1.3-2-2.9-2-5
		c0-2,0.7-3.7,2-5.1c1.3-1.3,3-2,5-2c1.2,0,2.3,0.2,3.4,0.7c0.7,0.3,1.4,0.7,2,1.2v-1.1c-0.6-0.5-1.2-0.8-1.8-1
		c-1-0.4-2.2-0.6-3.6-0.6c-2.3,0-4.2,0.7-5.7,2.2c-1.5,1.4-2.2,3.3-2.2,5.7c0,2.3,0.7,4.2,2.2,5.7c1.5,1.4,3.4,2.1,5.7,2.1
		c0.2,0,0.4,0,0.6,0s0.4,0,0.5,0c1.4-0.1,2.5-0.5,3.3-1.1L1911,258.1z M1917.4,259.8v-0.9h-4.3v-14.4h-0.8v15.4h5.1V259.8z
		 M1922.6,241.2l-0.5-0.4l-2.4,2.4l0.5,0.4L1922.6,241.2z M1920.8,259.8v-15.4h-0.8v15.4H1920.8z M1936.4,260v-15.6h-0.9v13.3
		l-11.5-13.5v15.5h0.8v-13L1936.4,260z M1939.2,259.8v-15.4h-0.8v15.4H1939.2z M1954.1,258.1v-1c-0.8,0.6-1.5,1-2,1.3
		c-1,0.5-2.1,0.7-3.3,0.7c-2.1,0-3.8-0.7-5.1-2c-1.3-1.3-2-2.9-2-5c0-2,0.7-3.7,2-5.1c1.3-1.3,3-2,5.1-2c1.2,0,2.3,0.2,3.4,0.7
		c0.7,0.3,1.4,0.7,2,1.2v-1.1c-0.6-0.5-1.2-0.8-1.8-1c-1-0.4-2.2-0.6-3.5-0.6c-2.3,0-4.2,0.7-5.7,2.2c-1.5,1.4-2.2,3.3-2.2,5.7
		c0,2.3,0.8,4.2,2.2,5.7c1.5,1.4,3.4,2.1,5.7,2.1c0.2,0,0.4,0,0.5,0c0.2,0,0.4,0,0.5,0c1.4-0.1,2.5-0.5,3.3-1.1L1954.1,258.1z
		 M1966.6,259.8l-6.1-15.9l-6.1,15.9h0.8l1.8-4.6h7l1.8,4.6H1966.6z M1963.6,254.3h-6.2l3.1-8.1L1963.6,254.3z M1977.2,255.8
		c0-1.2-0.4-2.2-1.2-3.1c-0.3-0.3-0.7-0.6-1.2-0.9c-0.5-0.3-1.1-0.6-1.8-0.8c-1.1-0.5-1.8-0.9-2.1-1.2c-0.7-0.6-1-1.2-1-2
		s0.3-1.4,0.9-2c0.6-0.5,1.3-0.7,2.1-0.7c0.8,0,1.4,0.1,2,0.5c0.4,0.3,0.7,0.6,1,1l0.8-0.3c-0.7-1.4-2-2-3.8-2c-1.1,0-2,0.3-2.8,1
		c-0.7,0.7-1.1,1.5-1.1,2.5c0,1.1,0.3,2,1.1,2.6c0.5,0.4,1.3,0.8,2.5,1.4c0.7,0.3,1.2,0.6,1.6,0.8c0.4,0.3,0.7,0.5,0.9,0.7
		c0.8,0.7,1.1,1.5,1.1,2.5c0,1-0.3,1.9-0.9,2.5c-0.7,0.5-1.5,0.8-2.6,0.8c-2,0-3.2-0.9-3.7-2.7l-0.8,0.3c0.7,2.3,2.1,3.4,4.6,3.4
		c0.7,0,1.4-0.1,2-0.3C1976.3,259.1,1977.2,257.7,1977.2,255.8L1977.2,255.8z M2000.4,252.1c0-2.3-0.8-4.2-2.2-5.7
		c-1.5-1.4-3.4-2.1-5.7-2.1c-2.3,0-4.2,0.7-5.7,2.2c-1.5,1.4-2.2,3.3-2.2,5.7c0,2.3,0.7,4.2,2.2,5.7c1.4,1.4,3.4,2.1,5.7,2.1
		c2.3,0,4.2-0.7,5.7-2.2C1999.6,256.3,2000.4,254.4,2000.4,252.1L2000.4,252.1z M1999.5,252.1c0,2.1-0.7,3.8-2,5.1
		c-1.3,1.3-3,2-5.1,2c-2,0-3.7-0.7-5-2c-1.3-1.3-2-2.9-2-5c0-2,0.7-3.7,2-5.1c1.3-1.3,3-2,5-2c2.1,0,3.8,0.7,5.1,2
		C1998.8,248.3,1999.5,250,1999.5,252.1L1999.5,252.1z M2014.8,252.1c0-2.1-0.6-3.9-1.8-5.3c-1.3-1.6-2.9-2.3-5-2.3h-5.1v15.4h5.1
		c2.1,0,3.8-0.8,5-2.3C2014.2,256,2014.8,254.2,2014.8,252.1L2014.8,252.1z M2013.9,252.1c0,2.1-0.7,3.8-1.9,5
		c-1.2,1.2-2.5,1.8-4.1,1.8h-4.3v-13.6h4.3c1.8,0,3.3,0.7,4.4,2.1C2013.4,248.6,2013.9,250.2,2013.9,252.1L2013.9,252.1z
		 M2032.9,252.1c0-2.3-0.8-4.2-2.2-5.7c-1.5-1.4-3.4-2.1-5.7-2.1c-2.3,0-4.2,0.7-5.7,2.2c-1.5,1.4-2.2,3.3-2.2,5.7
		c0,2.3,0.7,4.2,2.2,5.7c1.4,1.4,3.3,2.1,5.7,2.1c2.3,0,4.2-0.7,5.7-2.2C2032.1,256.3,2032.9,254.4,2032.9,252.1L2032.9,252.1z
		 M2032,252.1c0,2.1-0.7,3.8-2,5.1c-1.3,1.3-3,2-5.1,2c-2,0-3.7-0.7-5-2c-1.4-1.3-2-2.9-2-5c0-2,0.7-3.7,2-5.1c1.3-1.3,3-2,5-2
		c2.1,0,3.8,0.7,5.1,2C2031.3,248.3,2032,250,2032,252.1L2032,252.1z M2047.6,260v-15.6h-0.8v13.3l-11.5-13.5v15.5h0.9v-13
		L2047.6,260z M2056.6,245.3v-0.9h-7.7v0.9h3.4v14.4h0.8v-14.4L2056.6,245.3L2056.6,245.3z M2071.7,252.1c0-2.3-0.8-4.2-2.3-5.7
		c-1.4-1.4-3.4-2.1-5.7-2.1s-4.2,0.7-5.7,2.2c-1.4,1.4-2.1,3.3-2.1,5.7c0,2.3,0.7,4.2,2.2,5.7c1.4,1.4,3.3,2.1,5.7,2.1
		s4.2-0.7,5.7-2.2C2070.9,256.3,2071.7,254.4,2071.7,252.1L2071.7,252.1z M2070.8,252.1c0,2.1-0.7,3.8-2,5.1c-1.3,1.3-3,2-5.1,2
		s-3.7-0.7-5.1-2c-1.3-1.3-2-2.9-2-5c0-2,0.7-3.7,2-5.1c1.3-1.3,3-2,5-2c2.1,0,3.8,0.7,5.1,2C2070.1,248.3,2070.8,250,2070.8,252.1
		L2070.8,252.1z M2079.2,259.8v-0.9h-4.3v-14.4h-0.8v15.4h5.1V259.8z M2091.1,241.2l-0.4-0.4l-2.4,2.4l0.5,0.4L2091.1,241.2z
		 M2097,252.1c0-2.3-0.8-4.2-2.2-5.7c-1.5-1.4-3.4-2.1-5.7-2.1s-4.2,0.7-5.7,2.2c-1.5,1.4-2.2,3.3-2.2,5.7c0,2.3,0.7,4.2,2.2,5.7
		c1.4,1.4,3.3,2.1,5.7,2.1s4.2-0.7,5.7-2.2C2096.2,256.3,2097,254.4,2097,252.1L2097,252.1z M2096.1,252.1c0,2.1-0.7,3.8-2,5.1
		c-1.3,1.3-3,2-5.1,2c-2,0-3.7-0.7-5.1-2c-1.3-1.3-2-2.9-2-5c0-2,0.7-3.7,2-5.1c1.3-1.3,3-2,5-2c2.1,0,3.8,0.7,5.1,2
		C2095.4,248.3,2096.1,250,2096.1,252.1L2096.1,252.1z M2114.6,252.3h-6.1v0.9h5.1c-0.1,1.4-0.7,2.6-1.7,3.6
		c-1.3,1.5-3.1,2.2-5.2,2.2c-2,0-3.7-0.7-5.1-2c-1.3-1.3-2-3-2-5s0.7-3.7,2-5c1.4-1.4,3.1-2,5.1-2c2.5,0,4.4,1,5.8,2.9l0.7-0.6
		c-1.6-2.1-3.8-3.1-6.5-3.1c-2.3,0-4.2,0.7-5.7,2.2c-1.4,1.5-2.2,3.4-2.2,5.7s0.8,4.2,2.2,5.7c1.5,1.4,3.4,2.1,5.7,2.1
		c2.4,0,4.4-0.8,5.9-2.3C2114,256.2,2114.6,254.4,2114.6,252.3L2114.6,252.3z M2117.4,259.8v-15.4h-0.9v15.4H2117.4z M2132.3,258.1
		v-1c-0.8,0.6-1.5,1-2.1,1.3c-0.9,0.5-2,0.7-3.3,0.7c-2.1,0-3.7-0.7-5.1-2c-1.3-1.3-2-2.9-2-5c0-2,0.7-3.7,2-5.1c1.3-1.3,3-2,5-2
		c1.2,0,2.3,0.2,3.4,0.7c0.7,0.3,1.4,0.7,2,1.2v-1.1c-0.6-0.5-1.2-0.8-1.8-1c-1-0.4-2.3-0.6-3.6-0.6c-2.3,0-4.2,0.7-5.7,2.2
		c-1.4,1.4-2.1,3.3-2.1,5.7c0,2.3,0.7,4.2,2.2,5.7c1.4,1.4,3.3,2.1,5.7,2.1c0.2,0,0.4,0,0.6,0c0.2,0,0.3,0,0.5,0
		c1.4-0.1,2.5-0.5,3.3-1.1L2132.3,258.1z M2144.8,259.8l-6.2-15.9l-6.1,15.9h0.8l1.8-4.6h7l1.8,4.6H2144.8z M2141.8,254.3h-6.3
		l3.1-8.1L2141.8,254.3z M2155.3,255.8c0-1.2-0.4-2.2-1.2-3.1c-0.3-0.3-0.7-0.6-1.2-0.9c-0.5-0.3-1-0.6-1.8-0.8
		c-1-0.5-1.8-0.9-2.1-1.2c-0.6-0.6-0.9-1.2-0.9-2s0.3-1.4,0.9-2c0.5-0.5,1.2-0.7,2.1-0.7c0.8,0,1.4,0.1,2,0.5c0.4,0.3,0.8,0.6,1,1
		l0.8-0.3c-0.8-1.4-2-2-3.8-2c-1.1,0-2,0.3-2.7,1c-0.8,0.7-1.2,1.5-1.2,2.5c0,1.1,0.4,2,1.1,2.6c0.5,0.4,1.3,0.8,2.5,1.4
		c0.7,0.3,1.2,0.6,1.6,0.8c0.5,0.3,0.7,0.5,0.9,0.7c0.8,0.7,1.2,1.5,1.2,2.5c0,1-0.3,1.9-1,2.5c-0.7,0.5-1.5,0.8-2.6,0.8
		c-2,0-3.1-0.9-3.6-2.7l-0.9,0.3c0.7,2.3,2.2,3.4,4.6,3.4c0.8,0,1.4-0.1,2-0.3C2154.5,259.1,2155.3,257.7,2155.3,255.8L2155.3,255.8
		z"/>
	<path class="st2" d="M1998.3,106.8c0,7.5-6.1,13.5-13.5,13.5s-13.5-6-13.5-13.5c0-7.4,6.1-13.5,13.5-13.5
		C1992.3,93.3,1998.3,99.3,1998.3,106.8L1998.3,106.8z"/>
	<path class="st4" d="M2065.5,166.6c0,5.8-4.7,10.5-10.5,10.5s-10.5-4.7-10.5-10.5s4.7-10.5,10.5-10.5S2065.5,160.8,2065.5,166.6
		L2065.5,166.6z"/>
	<path class="st2" d="M2059.2,129.3c-0.6,1.1-4.2,0.7-4.2,0.7c-37.7-2.2-61.3,3.3-63.1,18.1c-1.2,10.7,9.9,23.1,20.7,31.6
		c0,0,2.1,1.4,0.5,3.1c-1.2,1.3-4.3-0.1-4.3-0.1c-20.5-8.8-35.7-23.2-35.1-36.3c0.7-14.4,18-24.5,42.4-26.9
		c8.7-0.8,27.7-0.4,40.5,6.7C2056.6,126.2,2059.9,127.9,2059.2,129.3L2059.2,129.3z"/>
	<path class="st4" d="M2023,181.3c0,0,50.9,22.1,62.9,2c12-20-22.3-44.6-31-47.6c-5.6-1.9-4.8,1.9-2.9,3.3
		c1.8,1.4,28.1,21.7,19.3,36.3c-8,13.3-41.3,1.9-46,1.4C2020.6,176.1,2020.6,180.2,2023,181.3L2023,181.3z"/>
</g>
<g>
	<path class="st3" d="M2454.7,155.4c-2.9-2.4-5.3-1.8-7.9-0.9c-2.3,0.7-6.8,0.9-7.5,0.9s-5.2-0.2-7.5-0.9c-2.5-0.8-5-1.5-7.9,0.9
		s-2.1,8,1.5,14.6c2.5,5.1,3.2,7.2,5,13.7c0.8,2.9,3.3,2.5,4,0.1c0.7-3.7,2.3-6.9,4.9-7.1c2.6,0.2,4.3,3.4,4.9,7.1
		c0.7,2.3,3.2,2.8,4-0.1c1.8-6.5,2.5-8.5,5-13.7C2456.7,163.4,2457.5,157.8,2454.7,155.4L2454.7,155.4z M2450.7,152
		c1.6,0,3.3,0.6,5.1,2.1c2,1.6,2.7,4,2.3,7.1c-0.3,2.7-1.5,6.1-3.4,9.6c-1.2,2.5-2,4.2-2.7,6.1c-0.7,1.9-1.3,4-2.2,7.2
		c-0.3,1.2-0.9,2.1-1.6,2.7c-0.7,0.5-1.4,0.7-2,0.7c-0.7,0-1.4-0.2-2-0.7c-0.8-0.5-1.4-1.4-1.8-2.5v-0.1v-0.1
		c-0.3-1.8-0.8-3.3-1.6-4.4c-0.5-0.7-1-1.2-1.6-1.2c-0.6,0.1-1.1,0.5-1.6,1.2c-0.7,1.1-1.3,2.7-1.6,4.4v0.1v0.1
		c-0.3,1.1-1,2-1.8,2.5c-0.6,0.5-1.2,0.7-1.9,0.7s-1.4-0.2-2-0.7c-0.7-0.5-1.4-1.4-1.7-2.7c-0.9-3.2-1.5-5.3-2.2-7.2
		s-1.4-3.6-2.7-6.1c-1.9-3.5-3.1-6.9-3.4-9.6c-0.3-3.1,0.4-5.5,2.3-7.1c1.8-1.5,3.4-2.1,5.1-2.1c1.6-0.1,3,0.3,4.4,0.8
		c1,0.3,2.6,0.5,4,0.7c1.4,0.1,2.6,0.2,3,0.2s1.6-0.1,3-0.2c1.4-0.1,3-0.3,4-0.7l0,0C2447.7,152.3,2449.1,151.9,2450.7,152
		L2450.7,152z"/>
	<path class="st3" d="M2308.9,217.9h4.9v34.4h-4.9V217.9z M2348.9,217.9h4.6v34.4h-4.9v-26.8l-10.6,13.3h-0.9l-10.7-13.3v26.8h-4.9
		v-34.4h4.6l11.5,14.1L2348.9,217.9z M2372.6,252.3H2361v-34.4h9c2.9,0,5.1,0.3,6.7,1.1c1.6,0.8,2.8,1.8,3.6,3.2
		c0.8,1.3,1.2,2.9,1.2,4.6c0,3.4-1.8,5.8-5.3,7.3c2.5,0.5,4.6,1.5,6.1,3.1s2.2,3.4,2.2,5.7c0,1.8-0.5,3.3-1.4,4.7s-2.2,2.5-4,3.4
		S2375.2,252.3,2372.6,252.3L2372.6,252.3z M2370.1,222.3h-4.3v10.3h3.3c2.6,0,4.5-0.5,5.6-1.5s1.7-2.3,1.7-3.9
		C2376.4,223.9,2374.3,222.3,2370.1,222.3L2370.1,222.3z M2370.4,237.1h-4.6V248h4.9c2.7,0,4.6-0.3,5.5-0.7c1-0.5,1.8-1.1,2.3-2
		c0.6-0.9,0.8-1.9,0.8-2.9s-0.3-2-0.9-2.9c-0.6-0.8-1.5-1.5-2.6-1.9C2374.7,237.2,2372.9,237.1,2370.4,237.1L2370.4,237.1z
		 M2401.4,217.7h3.5l15.4,34.6h-5l-4.6-10.2H2396l-4.4,10.2h-5L2401.4,217.7z M2408.6,237.8l-5.5-12.5l-5.1,12.5H2408.6z
		 M2451.5,217.9h4.7v34.4h-4.3l-23-26.5v26.5h-4.6v-34.4h4l23.3,26.7L2451.5,217.9L2451.5,217.9z M2474.5,217.7h3.4l15.4,34.6h-5
		l-4.6-10.2h-14.6l-4.4,10.2h-5L2474.5,217.7z M2481.7,237.8l-5.5-12.5l-5.1,12.5H2481.7z M2524.9,244.3v5.5
		c-3.6,2-7.8,2.9-12.6,2.9c-3.8,0-7.1-0.8-9.8-2.3s-4.8-3.6-6.4-6.4c-1.6-2.7-2.3-5.6-2.3-8.8c0-5,1.8-9.2,5.4-12.6
		c3.6-3.4,7.9-5.1,13.2-5.1c3.6,0,7.6,0.9,12,2.8v5.3c-4-2.3-7.9-3.4-11.8-3.4c-4,0-7.2,1.2-9.8,3.7s-3.9,5.6-3.9,9.4
		s1.2,6.9,3.8,9.3c2.5,2.5,5.9,3.6,9.8,3.6C2516.8,248.2,2520.9,246.9,2524.9,244.3L2524.9,244.3z M2547.9,217.4
		c5.3,0,9.8,1.7,13.3,5.1c3.5,3.3,5.3,7.5,5.3,12.6s-1.8,9.3-5.3,12.6s-8.1,5-13.5,5c-5.2,0-9.5-1.7-13-5s-5.2-7.5-5.2-12.5
		c0-5.1,1.8-9.4,5.2-12.8C2538.2,219.1,2542.5,217.4,2547.9,217.4L2547.9,217.4z M2548.1,222.1c-3.9,0-7.2,1.2-9.7,3.7
		s-3.8,5.6-3.8,9.4c0,3.7,1.3,6.8,3.8,9.2c2.5,2.5,5.7,3.7,9.6,3.7c3.8,0,7-1.2,9.6-3.8c2.6-2.5,3.8-5.6,3.8-9.4
		c0-3.6-1.2-6.7-3.8-9.2C2555,223.3,2551.8,222.1,2548.1,222.1L2548.1,222.1z"/>
	<path class="st3" d="M2322.2,273.9v-1c-0.8,0.6-1.5,1-2,1.3c-1,0.5-2.1,0.7-3.4,0.7c-2,0-3.7-0.7-5-2s-2-2.9-2-5c0-2,0.7-3.7,2-5.1
		c1.3-1.3,3-2,5-2c1.2,0,2.3,0.2,3.4,0.7c0.7,0.3,1.4,0.7,2,1.2v-1.1c-0.6-0.5-1.2-0.8-1.8-1c-1-0.4-2.2-0.6-3.6-0.6
		c-2.3,0-4.2,0.7-5.7,2.2c-1.5,1.4-2.2,3.3-2.2,5.7s0.7,4.2,2.2,5.7c1.5,1.4,3.4,2.1,5.7,2.1c0.2,0,0.4,0,0.6,0s0.4,0,0.5,0
		c1.4-0.1,2.5-0.5,3.3-1.1L2322.2,273.9z M2328.6,275.5v-0.9h-4.3v-14.4h-0.8v15.4h5.1V275.5z M2333.8,256.9l-0.5-0.4l-2.4,2.4
		l0.5,0.4L2333.8,256.9z M2332,275.5v-15.4h-0.8v15.4H2332z M2347.6,275.8v-15.6h-0.9v13.3l-11.5-13.5v15.5h0.8v-13L2347.6,275.8z
		 M2350.3,275.5v-15.4h-0.8v15.4H2350.3z M2365.2,273.9v-1c-0.8,0.6-1.5,1-2,1.3c-1,0.5-2.1,0.7-3.3,0.7c-2.1,0-3.8-0.7-5.1-2
		s-2-2.9-2-5c0-2,0.7-3.7,2-5.1c1.3-1.3,3-2,5.1-2c1.2,0,2.3,0.2,3.4,0.7c0.7,0.3,1.4,0.7,2,1.2v-1.1c-0.6-0.5-1.2-0.8-1.8-1
		c-1-0.4-2.2-0.6-3.5-0.6c-2.3,0-4.2,0.7-5.7,2.2c-1.5,1.4-2.2,3.3-2.2,5.7s0.8,4.2,2.2,5.7c1.5,1.4,3.4,2.1,5.7,2.1
		c0.2,0,0.4,0,0.5,0c0.2,0,0.4,0,0.5,0c1.4-0.1,2.5-0.5,3.3-1.1L2365.2,273.9z M2377.8,275.5l-6.1-15.9l-6.1,15.9h0.8l1.8-4.6h7
		l1.8,4.6H2377.8z M2374.8,270h-6.2l3.1-8.1L2374.8,270z M2388.3,271.5c0-1.2-0.4-2.2-1.2-3.1c-0.3-0.3-0.7-0.6-1.2-0.9
		s-1.1-0.6-1.8-0.8c-1.1-0.5-1.8-0.9-2.1-1.2c-0.7-0.6-1-1.2-1-2s0.3-1.4,0.9-2c0.6-0.5,1.3-0.7,2.1-0.7s1.4,0.1,2,0.5
		c0.4,0.3,0.7,0.6,1,1l0.8-0.3c-0.7-1.4-2-2-3.8-2c-1.1,0-2,0.3-2.8,1c-0.7,0.7-1.1,1.5-1.1,2.5c0,1.1,0.3,2,1.1,2.6
		c0.5,0.4,1.3,0.8,2.5,1.4c0.7,0.3,1.2,0.6,1.6,0.8c0.4,0.3,0.7,0.5,0.9,0.7c0.8,0.7,1.1,1.5,1.1,2.5s-0.3,1.9-0.9,2.5
		c-0.7,0.5-1.5,0.8-2.6,0.8c-2,0-3.2-0.9-3.7-2.7l-0.8,0.3c0.7,2.3,2.1,3.4,4.6,3.4c0.7,0,1.4-0.1,2-0.3
		C2387.5,274.8,2388.3,273.5,2388.3,271.5L2388.3,271.5z M2411.6,267.8c0-2.3-0.8-4.2-2.2-5.7c-1.5-1.4-3.4-2.1-5.7-2.1
		s-4.2,0.7-5.7,2.2c-1.5,1.4-2.2,3.3-2.2,5.7s0.7,4.2,2.2,5.7c1.4,1.4,3.4,2.1,5.7,2.1s4.2-0.7,5.7-2.2
		C2410.8,272.1,2411.6,270.2,2411.6,267.8L2411.6,267.8z M2410.7,267.8c0,2.1-0.7,3.8-2,5.1c-1.3,1.3-3,2-5.1,2c-2,0-3.7-0.7-5-2
		s-2-2.9-2-5c0-2,0.7-3.7,2-5.1c1.3-1.3,3-2,5-2c2.1,0,3.8,0.7,5.1,2C2410,264.1,2410.7,265.8,2410.7,267.8L2410.7,267.8z
		 M2426,267.8c0-2.1-0.6-3.9-1.8-5.3c-1.3-1.6-2.9-2.3-5-2.3h-5.1v15.4h5.1c2.1,0,3.8-0.8,5-2.3C2425.4,271.7,2426,269.9,2426,267.8
		L2426,267.8z M2425.1,267.8c0,2.1-0.7,3.8-1.9,5s-2.5,1.8-4.1,1.8h-4.3V261h4.3c1.8,0,3.3,0.7,4.4,2.1
		C2424.6,264.4,2425.1,265.9,2425.1,267.8L2425.1,267.8z M2444.1,267.8c0-2.3-0.8-4.2-2.2-5.7c-1.5-1.4-3.4-2.1-5.7-2.1
		s-4.2,0.7-5.7,2.2c-1.5,1.4-2.2,3.3-2.2,5.7s0.7,4.2,2.2,5.7c1.4,1.4,3.3,2.1,5.7,2.1s4.2-0.7,5.7-2.2
		C2443.3,272.1,2444.1,270.2,2444.1,267.8L2444.1,267.8z M2443.1,267.8c0,2.1-0.7,3.8-2,5.1c-1.3,1.3-3,2-5.1,2c-2,0-3.7-0.7-5-2
		c-1.4-1.3-2-2.9-2-5c0-2,0.7-3.7,2-5.1c1.3-1.3,3-2,5-2c2.1,0,3.8,0.7,5.1,2C2442.5,264.1,2443.1,265.8,2443.1,267.8L2443.1,267.8z
		 M2458.8,275.8v-15.6h-0.8v13.3l-11.5-13.5v15.5h0.9v-13L2458.8,275.8z M2467.8,261.1v-0.9h-7.7v0.9h3.4v14.4h0.8v-14.4H2467.8z
		 M2482.8,267.8c0-2.3-0.8-4.2-2.3-5.7c-1.4-1.4-3.4-2.1-5.7-2.1s-4.2,0.7-5.7,2.2c-1.4,1.4-2.1,3.3-2.1,5.7s0.7,4.2,2.2,5.7
		c1.4,1.4,3.3,2.1,5.7,2.1s4.2-0.7,5.7-2.2C2482.1,272.1,2482.8,270.2,2482.8,267.8L2482.8,267.8z M2481.9,267.8
		c0,2.1-0.7,3.8-2,5.1c-1.3,1.3-3,2-5.1,2s-3.7-0.7-5.1-2c-1.3-1.3-2-2.9-2-5c0-2,0.7-3.7,2-5.1c1.3-1.3,3-2,5-2
		c2.1,0,3.8,0.7,5.1,2C2481.3,264.1,2481.9,265.8,2481.9,267.8L2481.9,267.8z M2490.4,275.5v-0.9h-4.3v-14.4h-0.8v15.4h5.1V275.5z
		 M2502.2,256.9l-0.4-0.4l-2.4,2.4l0.5,0.4L2502.2,256.9z M2508.2,267.8c0-2.3-0.8-4.2-2.2-5.7c-1.5-1.4-3.4-2.1-5.7-2.1
		s-4.2,0.7-5.7,2.2c-1.5,1.4-2.2,3.3-2.2,5.7s0.7,4.2,2.2,5.7c1.4,1.4,3.3,2.1,5.7,2.1s4.2-0.7,5.7-2.2
		C2507.4,272.1,2508.2,270.2,2508.2,267.8L2508.2,267.8z M2507.3,267.8c0,2.1-0.7,3.8-2,5.1s-3,2-5.1,2c-2,0-3.7-0.7-5.1-2
		c-1.3-1.3-2-2.9-2-5c0-2,0.7-3.7,2-5.1c1.3-1.3,3-2,5-2c2.1,0,3.8,0.7,5.1,2S2507.3,265.8,2507.3,267.8L2507.3,267.8z
		 M2525.8,268.1h-6.1v0.9h5.1c-0.1,1.4-0.7,2.6-1.7,3.6c-1.3,1.5-3.1,2.2-5.2,2.2c-2,0-3.7-0.7-5.1-2c-1.3-1.3-2-3-2-5s0.7-3.7,2-5
		c1.4-1.4,3.1-2,5.1-2c2.5,0,4.4,1,5.8,2.9l0.7-0.6c-1.6-2.1-3.8-3.1-6.5-3.1c-2.3,0-4.2,0.7-5.7,2.2c-1.4,1.5-2.2,3.4-2.2,5.7
		c0,2.3,0.8,4.2,2.2,5.7c1.5,1.4,3.4,2.1,5.7,2.1c2.4,0,4.4-0.8,5.9-2.3C2525.2,271.9,2525.8,270.2,2525.8,268.1L2525.8,268.1z
		 M2528.5,275.5v-15.4h-0.9v15.4H2528.5z M2543.4,273.9v-1c-0.8,0.6-1.5,1-2.1,1.3c-0.9,0.5-2,0.7-3.3,0.7c-2.1,0-3.7-0.7-5.1-2
		c-1.3-1.3-2-2.9-2-5c0-2,0.7-3.7,2-5.1c1.3-1.3,3-2,5-2c1.2,0,2.3,0.2,3.4,0.7c0.7,0.3,1.4,0.7,2,1.2v-1.1c-0.6-0.5-1.2-0.8-1.8-1
		c-1-0.4-2.3-0.6-3.6-0.6c-2.3,0-4.2,0.7-5.7,2.2c-1.4,1.4-2.1,3.3-2.1,5.7s0.7,4.2,2.2,5.7c1.4,1.4,3.3,2.1,5.7,2.1
		c0.2,0,0.4,0,0.6,0s0.3,0,0.5,0c1.4-0.1,2.5-0.5,3.3-1.1L2543.4,273.9z M2556,275.5l-6.2-15.9l-6.1,15.9h0.8l1.8-4.6h7l1.8,4.6
		H2556z M2553,270h-6.3l3.1-8.1L2553,270z M2566.5,271.5c0-1.2-0.4-2.2-1.2-3.1c-0.3-0.3-0.7-0.6-1.2-0.9s-1-0.6-1.8-0.8
		c-1-0.5-1.8-0.9-2.1-1.2c-0.6-0.6-0.9-1.2-0.9-2s0.3-1.4,0.9-2c0.5-0.5,1.2-0.7,2.1-0.7c0.8,0,1.4,0.1,2,0.5c0.4,0.3,0.8,0.6,1,1
		l0.8-0.3c-0.8-1.4-2-2-3.8-2c-1.1,0-2,0.3-2.7,1c-0.8,0.7-1.2,1.5-1.2,2.5c0,1.1,0.4,2,1.1,2.6c0.5,0.4,1.3,0.8,2.5,1.4
		c0.7,0.3,1.2,0.6,1.6,0.8c0.5,0.3,0.7,0.5,0.9,0.7c0.8,0.7,1.2,1.5,1.2,2.5s-0.3,1.9-1,2.5c-0.7,0.5-1.5,0.8-2.6,0.8
		c-2,0-3.1-0.9-3.6-2.7l-0.9,0.3c0.7,2.3,2.2,3.4,4.6,3.4c0.8,0,1.4-0.1,2-0.3C2565.7,274.8,2566.5,273.5,2566.5,271.5L2566.5,271.5
		z"/>
	<path class="st3" d="M2409.5,122.5c0,7.5-6.1,13.5-13.5,13.5s-13.5-6-13.5-13.5c0-7.4,6.1-13.5,13.5-13.5
		S2409.5,115.1,2409.5,122.5L2409.5,122.5z"/>
	<path class="st3" d="M2476.7,182.4c0,5.8-4.7,10.5-10.5,10.5s-10.5-4.7-10.5-10.5s4.7-10.5,10.5-10.5S2476.7,176.6,2476.7,182.4
		L2476.7,182.4z"/>
	<path class="st3" d="M2470.4,145c-0.6,1.1-4.2,0.7-4.2,0.7c-37.7-2.2-61.3,3.3-63.1,18.1c-1.2,10.7,9.9,23.1,20.7,31.6
		c0,0,2.1,1.4,0.5,3.1c-1.2,1.3-4.3-0.1-4.3-0.1c-20.5-8.8-35.7-23.2-35.1-36.3c0.7-14.4,18-24.5,42.4-26.9
		c8.7-0.8,27.7-0.4,40.5,6.7C2467.8,142,2471.1,143.7,2470.4,145L2470.4,145z"/>
	<path class="st3" d="M2434.2,197.1c0,0,50.9,22.1,62.9,2c12-20-22.3-44.6-31-47.6c-5.6-1.9-4.8,1.9-2.9,3.3
		c1.8,1.4,28.1,21.7,19.3,36.3c-8,13.3-41.3,1.9-46,1.4C2431.8,191.9,2431.8,195.9,2434.2,197.1L2434.2,197.1z"/>
</g>
<g>
	<path class="st1" d="M2038.7,475.5c-0.7,0-1.3-0.2-1.9-0.6l0,0c-0.7-0.5-1.3-1.3-1.7-2.4v-0.2l0,0c-0.4-1.9-0.9-3.4-1.7-4.5
		c-0.5-0.8-1.1-1.2-1.7-1.3l0,0l0,0c-0.6,0.1-1.1,0.5-1.7,1.3l0,0c-0.7,1.1-1.3,2.7-1.6,4.5l0,0v0.2c-0.3,1-0.9,1.8-1.7,2.4l0,0
		c-0.5,0.4-1.1,0.6-1.8,0.6c-0.7,0-1.4-0.2-1.9-0.6c-0.8-0.6-1.3-1.5-1.6-2.6l-0.1-0.5c-0.8-3-1.4-4.9-2.1-6.7
		c-0.6-1.8-1.4-3.5-2.7-6.1c-1.8-3.4-3-6.8-3.4-9.6c-0.3-3.1,0.4-5.5,2.3-7c1.6-1.4,3.2-2,5-2c0.1,0,0.2,0,0.4,0
		c1.5,0,2.7,0.4,4,0.8c0.9,0.3,2.2,0.5,4.1,0.7c1.4,0.1,2.6,0.2,3,0.2s1.6-0.1,3-0.2c1.9-0.2,3.2-0.4,4.1-0.7c1.3-0.4,2.6-0.8,4-0.8
		c0.1,0,0.2,0,0.3,0c1.7,0,3.4,0.7,5,2c1.9,1.5,2.6,3.8,2.3,7c-0.3,2.7-1.5,6.1-3.4,9.6c-1.3,2.6-2.1,4.3-2.7,6.1
		c-0.7,1.8-1.2,3.8-2.1,6.7l-0.1,0.5c-0.3,1.2-0.9,2.1-1.6,2.6C2039.8,475.4,2039.1,475.5,2038.7,475.5z"/>
	<path class="st2" d="M2047.1,443.7c-2.9-2.4-5.3-1.8-7.9-0.9c-2.3,0.7-6.8,0.9-7.5,0.9s-5.2-0.2-7.5-0.9c-2.5-0.8-5-1.5-7.9,0.9
		s-2.1,8,1.5,14.6c2.5,5.1,3.2,7.2,5,13.7c0.8,2.9,3.3,2.5,4,0.1c0.7-3.7,2.3-6.9,4.9-7.1c2.6,0.2,4.3,3.4,4.9,7.1
		c0.7,2.3,3.2,2.8,4-0.1c1.8-6.5,2.5-8.5,5-13.7C2049.2,451.7,2050,446.1,2047.1,443.7L2047.1,443.7z M2043.1,440.3
		c1.6,0,3.3,0.6,5.1,2.1c2,1.6,2.7,4,2.3,7.1c-0.3,2.7-1.5,6.1-3.4,9.6c-1.2,2.5-2,4.2-2.7,6.1s-1.3,4-2.2,7.2
		c-0.3,1.2-0.9,2.1-1.6,2.7c-0.7,0.5-1.4,0.7-2,0.7c-0.7,0-1.4-0.2-2-0.7c-0.8-0.5-1.4-1.4-1.8-2.5v-0.1v-0.1
		c-0.3-1.8-0.8-3.3-1.6-4.4c-0.5-0.7-1-1.2-1.6-1.2c-0.6,0.1-1.1,0.5-1.6,1.2c-0.7,1.1-1.3,2.7-1.6,4.4v0.1v0.1
		c-0.3,1.1-1,2-1.8,2.5c-0.6,0.5-1.2,0.7-1.9,0.7c-0.7,0-1.4-0.2-2-0.7c-0.7-0.5-1.4-1.4-1.7-2.7c-0.9-3.2-1.5-5.3-2.2-7.2
		c-0.7-1.9-1.4-3.6-2.7-6.1c-1.9-3.5-3.1-6.9-3.4-9.6c-0.3-3.1,0.4-5.5,2.3-7.1c1.8-1.5,3.4-2.1,5.1-2.1c1.6-0.1,3,0.3,4.4,0.8
		c1,0.3,2.6,0.5,4,0.7c1.4,0.1,2.6,0.2,3,0.2s1.6-0.1,3-0.2s3-0.3,4-0.7l0,0C2040.1,440.6,2041.5,440.2,2043.1,440.3L2043.1,440.3z"
		/>
	<path class="st2" d="M1901.3,506.2h4.9v34.4h-4.9V506.2z M1941.4,506.2h4.6v34.4h-4.9v-26.8l-10.6,13.3h-0.9l-10.7-13.3v26.8h-4.9
		v-34.4h4.6l11.5,14.1L1941.4,506.2z M1965,540.6h-11.7v-34.4h9c2.9,0,5.1,0.3,6.7,1.1c1.6,0.8,2.8,1.8,3.6,3.2
		c0.8,1.3,1.2,2.9,1.2,4.6c0,3.4-1.8,5.8-5.3,7.3c2.5,0.5,4.6,1.5,6.1,3.1s2.2,3.4,2.2,5.7c0,1.8-0.5,3.3-1.4,4.7s-2.2,2.5-4,3.4
		C1969.9,540.2,1967.6,540.6,1965,540.6L1965,540.6z M1962.6,510.6h-4.3v10.3h3.3c2.6,0,4.5-0.5,5.6-1.5s1.7-2.3,1.7-3.9
		C1968.9,512.2,1966.7,510.6,1962.6,510.6L1962.6,510.6z M1962.9,525.3h-4.6v10.9h4.9c2.7,0,4.6-0.3,5.5-0.7c1-0.5,1.8-1.1,2.3-2
		c0.6-0.9,0.8-1.9,0.8-2.9s-0.3-2-0.9-2.9c-0.6-0.8-1.5-1.5-2.6-1.9C1967.1,525.5,1965.4,525.3,1962.9,525.3L1962.9,525.3z
		 M1993.8,506h3.5l15.4,34.6h-5l-4.6-10.2h-14.6l-4.4,10.2h-5L1993.8,506z M2001,526.1l-5.5-12.5l-5.1,12.5H2001z M2043.9,506.2h4.7
		v34.4h-4.3l-23-26.5v26.5h-4.6v-34.4h4l23.3,26.7v-26.7H2043.9z M2067,506h3.4l15.4,34.6h-5l-4.6-10.2h-14.6l-4.4,10.2h-5L2067,506
		z M2074.2,526.1l-5.5-12.5l-5.1,12.5H2074.2z M2117.3,532.6v5.5c-3.6,2-7.8,2.9-12.6,2.9c-3.8,0-7.1-0.8-9.8-2.3s-4.8-3.6-6.4-6.4
		c-1.6-2.7-2.3-5.6-2.3-8.8c0-5,1.8-9.2,5.4-12.6c3.6-3.4,7.9-5.1,13.2-5.1c3.6,0,7.6,0.9,12,2.8v5.3c-4-2.3-7.9-3.4-11.8-3.4
		c-4,0-7.2,1.2-9.8,3.7c-2.6,2.5-3.9,5.6-3.9,9.4s1.2,6.9,3.8,9.3c2.5,2.5,5.9,3.6,9.8,3.6C2109.3,536.5,2113.4,535.2,2117.3,532.6
		L2117.3,532.6z M2140.3,505.7c5.3,0,9.8,1.7,13.3,5.1c3.5,3.3,5.3,7.5,5.3,12.6s-1.8,9.3-5.3,12.6c-3.6,3.3-8.1,5-13.5,5
		c-5.2,0-9.5-1.7-13-5s-5.2-7.5-5.2-12.5c0-5.1,1.8-9.4,5.2-12.8C2130.6,507.4,2135,505.7,2140.3,505.7L2140.3,505.7z M2140.5,510.4
		c-3.9,0-7.2,1.2-9.7,3.7c-2.5,2.5-3.8,5.6-3.8,9.4c0,3.7,1.3,6.8,3.8,9.2c2.5,2.5,5.7,3.7,9.6,3.7c3.8,0,7-1.2,9.6-3.8
		c2.6-2.5,3.8-5.6,3.8-9.4c0-3.6-1.2-6.7-3.8-9.2C2147.4,511.6,2144.3,510.4,2140.5,510.4L2140.5,510.4z"/>
	<path class="st2" d="M1914.6,562.2v-1c-0.8,0.6-1.5,1-2,1.3c-1,0.5-2.1,0.7-3.4,0.7c-2,0-3.7-0.7-5-2s-2-2.9-2-5c0-2,0.7-3.7,2-5.1
		c1.3-1.3,3-2,5-2c1.2,0,2.3,0.2,3.4,0.7c0.7,0.3,1.4,0.7,2,1.2v-1.1c-0.6-0.5-1.2-0.8-1.8-1c-1-0.4-2.2-0.6-3.6-0.6
		c-2.3,0-4.2,0.7-5.7,2.2c-1.5,1.4-2.2,3.3-2.2,5.7c0,2.3,0.7,4.2,2.2,5.7c1.5,1.4,3.4,2.1,5.7,2.1c0.2,0,0.4,0,0.6,0s0.4,0,0.5,0
		c1.4-0.1,2.5-0.5,3.3-1.1L1914.6,562.2z M1921,563.8v-0.9h-4.3v-14.4h-0.8v15.4L1921,563.8L1921,563.8z M1926.3,545.2l-0.5-0.4
		l-2.4,2.4l0.5,0.4L1926.3,545.2z M1924.4,563.8v-15.4h-0.8v15.4H1924.4z M1940.1,564.1v-15.6h-0.9v13.3l-11.5-13.5v15.5h0.8v-13
		L1940.1,564.1z M1942.8,563.8v-15.4h-0.8v15.4H1942.8z M1957.7,562.2v-1c-0.8,0.6-1.5,1-2,1.3c-1,0.5-2.1,0.7-3.3,0.7
		c-2.1,0-3.8-0.7-5.1-2c-1.3-1.3-2-2.9-2-5c0-2,0.7-3.7,2-5.1c1.3-1.3,3-2,5.1-2c1.2,0,2.3,0.2,3.4,0.7c0.7,0.3,1.4,0.7,2,1.2v-1.1
		c-0.6-0.5-1.2-0.8-1.8-1c-1-0.4-2.2-0.6-3.5-0.6c-2.3,0-4.2,0.7-5.7,2.2c-1.5,1.4-2.2,3.3-2.2,5.7c0,2.3,0.8,4.2,2.2,5.7
		c1.5,1.4,3.4,2.1,5.7,2.1c0.2,0,0.4,0,0.5,0c0.2,0,0.4,0,0.5,0c1.4-0.1,2.5-0.5,3.3-1.1L1957.7,562.2z M1970.2,563.8l-6.1-15.9
		l-6.1,15.9h0.8l1.8-4.6h7l1.8,4.6H1970.2z M1967.3,558.3h-6.2l3.1-8.1L1967.3,558.3z M1980.8,559.8c0-1.2-0.4-2.2-1.2-3.1
		c-0.3-0.3-0.7-0.6-1.2-0.9c-0.5-0.3-1.1-0.6-1.8-0.8c-1.1-0.5-1.8-0.9-2.1-1.2c-0.7-0.6-1-1.2-1-2s0.3-1.4,0.9-2
		c0.6-0.5,1.3-0.7,2.1-0.7c0.8,0,1.4,0.1,2,0.5c0.4,0.3,0.7,0.6,1,1l0.8-0.3c-0.7-1.4-2-2-3.8-2c-1.1,0-2,0.3-2.8,1
		c-0.7,0.7-1.1,1.5-1.1,2.5c0,1.1,0.3,2,1.1,2.6c0.5,0.4,1.3,0.8,2.5,1.4c0.7,0.3,1.2,0.6,1.6,0.8c0.4,0.3,0.7,0.5,0.9,0.7
		c0.8,0.7,1.1,1.5,1.1,2.5s-0.3,1.9-0.9,2.5c-0.7,0.5-1.5,0.8-2.6,0.8c-2,0-3.2-0.9-3.7-2.7l-0.8,0.3c0.7,2.3,2.1,3.4,4.6,3.4
		c0.7,0,1.4-0.1,2-0.3C1979.9,563.1,1980.8,561.8,1980.8,559.8L1980.8,559.8z M2004,556.1c0-2.3-0.8-4.2-2.2-5.7
		c-1.5-1.4-3.4-2.1-5.7-2.1c-2.3,0-4.2,0.7-5.7,2.2c-1.5,1.4-2.2,3.3-2.2,5.7c0,2.3,0.7,4.2,2.2,5.7c1.4,1.4,3.4,2.1,5.7,2.1
		c2.3,0,4.2-0.7,5.7-2.2C2003.2,560.4,2004,558.5,2004,556.1L2004,556.1z M2003.1,556.1c0,2.1-0.7,3.8-2,5.1s-3,2-5.1,2
		c-2,0-3.7-0.7-5-2s-2-2.9-2-5c0-2,0.7-3.7,2-5.1c1.3-1.3,3-2,5-2c2.1,0,3.8,0.7,5.1,2C2002.5,552.4,2003.1,554,2003.1,556.1
		L2003.1,556.1z M2018.4,556.1c0-2.1-0.6-3.9-1.8-5.3c-1.3-1.6-2.9-2.3-5-2.3h-5.1v15.4h5.1c2.1,0,3.8-0.8,5-2.3
		C2017.8,560,2018.4,558.2,2018.4,556.1L2018.4,556.1z M2017.6,556.1c0,2.1-0.7,3.8-1.9,5c-1.2,1.2-2.5,1.8-4.1,1.8h-4.3v-13.6h4.3
		c1.8,0,3.3,0.7,4.4,2.1C2017,552.7,2017.6,554.2,2017.6,556.1L2017.6,556.1z M2036.5,556.1c0-2.3-0.8-4.2-2.2-5.7
		c-1.5-1.4-3.4-2.1-5.7-2.1s-4.2,0.7-5.7,2.2c-1.5,1.4-2.2,3.3-2.2,5.7c0,2.3,0.7,4.2,2.2,5.7c1.4,1.4,3.3,2.1,5.7,2.1
		s4.2-0.7,5.7-2.2C2035.7,560.4,2036.5,558.5,2036.5,556.1L2036.5,556.1z M2035.6,556.1c0,2.1-0.7,3.8-2,5.1s-3,2-5.1,2
		c-2,0-3.7-0.7-5-2c-1.4-1.3-2-2.9-2-5c0-2,0.7-3.7,2-5.1c1.3-1.3,3-2,5-2c2.1,0,3.8,0.7,5.1,2
		C2034.9,552.4,2035.6,554,2035.6,556.1L2035.6,556.1z M2051.3,564.1v-15.6h-0.8v13.3l-11.5-13.5v15.5h0.9v-13L2051.3,564.1z
		 M2060.3,549.4v-0.9h-7.7v0.9h3.4v14.4h0.8v-14.4H2060.3z M2075.3,556.1c0-2.3-0.8-4.2-2.3-5.7c-1.4-1.4-3.4-2.1-5.7-2.1
		s-4.2,0.7-5.7,2.2c-1.4,1.4-2.1,3.3-2.1,5.7c0,2.3,0.7,4.2,2.2,5.7c1.4,1.4,3.3,2.1,5.7,2.1s4.2-0.7,5.7-2.2
		C2074.5,560.4,2075.3,558.5,2075.3,556.1L2075.3,556.1z M2074.4,556.1c0,2.1-0.7,3.8-2,5.1s-3,2-5.1,2s-3.7-0.7-5.1-2
		c-1.3-1.3-2-2.9-2-5c0-2,0.7-3.7,2-5.1c1.3-1.3,3-2,5-2c2.1,0,3.8,0.7,5.1,2C2073.7,552.4,2074.4,554,2074.4,556.1L2074.4,556.1z
		 M2082.8,563.8v-0.9h-4.3v-14.4h-0.8v15.4L2082.8,563.8L2082.8,563.8z M2094.7,545.2l-0.4-0.4l-2.4,2.4l0.5,0.4L2094.7,545.2z
		 M2100.6,556.1c0-2.3-0.8-4.2-2.2-5.7c-1.5-1.4-3.4-2.1-5.7-2.1s-4.2,0.7-5.7,2.2c-1.5,1.4-2.2,3.3-2.2,5.7c0,2.3,0.7,4.2,2.2,5.7
		c1.4,1.4,3.3,2.1,5.7,2.1s4.2-0.7,5.7-2.2C2099.8,560.4,2100.6,558.5,2100.6,556.1L2100.6,556.1z M2099.7,556.1
		c0,2.1-0.7,3.8-2,5.1s-3,2-5.1,2c-2,0-3.7-0.7-5.1-2c-1.3-1.3-2-2.9-2-5c0-2,0.7-3.7,2-5.1c1.3-1.3,3-2,5-2c2.1,0,3.8,0.7,5.1,2
		C2099,552.4,2099.7,554,2099.7,556.1L2099.7,556.1z M2118.2,556.4h-6.1v0.9h5.1c-0.1,1.4-0.7,2.6-1.7,3.6c-1.3,1.5-3.1,2.2-5.2,2.2
		c-2,0-3.7-0.7-5.1-2c-1.3-1.3-2-3-2-5s0.7-3.7,2-5c1.4-1.4,3.1-2,5.1-2c2.5,0,4.4,1,5.8,2.9l0.7-0.6c-1.6-2.1-3.8-3.1-6.5-3.1
		c-2.3,0-4.2,0.7-5.7,2.2c-1.4,1.5-2.2,3.4-2.2,5.7s0.8,4.2,2.2,5.7c1.5,1.4,3.4,2.1,5.7,2.1c2.4,0,4.4-0.8,5.9-2.3
		C2117.6,560.2,2118.2,558.5,2118.2,556.4L2118.2,556.4z M2121,563.8v-15.4h-0.9v15.4H2121z M2135.9,562.2v-1
		c-0.8,0.6-1.5,1-2.1,1.3c-0.9,0.5-2,0.7-3.3,0.7c-2.1,0-3.7-0.7-5.1-2c-1.3-1.3-2-2.9-2-5c0-2,0.7-3.7,2-5.1c1.3-1.3,3-2,5-2
		c1.2,0,2.3,0.2,3.4,0.7c0.7,0.3,1.4,0.7,2,1.2v-1.1c-0.6-0.5-1.2-0.8-1.8-1c-1-0.4-2.3-0.6-3.6-0.6c-2.3,0-4.2,0.7-5.7,2.2
		c-1.4,1.4-2.1,3.3-2.1,5.7c0,2.3,0.7,4.2,2.2,5.7c1.4,1.4,3.3,2.1,5.7,2.1c0.2,0,0.4,0,0.6,0c0.2,0,0.3,0,0.5,0
		c1.4-0.1,2.5-0.5,3.3-1.1L2135.9,562.2z M2148.4,563.8l-6.2-15.9l-6.1,15.9h0.8l1.8-4.6h7l1.8,4.6H2148.4z M2145.5,558.3h-6.3
		l3.1-8.1L2145.5,558.3z M2158.9,559.8c0-1.2-0.4-2.2-1.2-3.1c-0.3-0.3-0.7-0.6-1.2-0.9c-0.5-0.3-1-0.6-1.8-0.8
		c-1-0.5-1.8-0.9-2.1-1.2c-0.6-0.6-0.9-1.2-0.9-2s0.3-1.4,0.9-2c0.5-0.5,1.2-0.7,2.1-0.7c0.8,0,1.4,0.1,2,0.5c0.4,0.3,0.8,0.6,1,1
		l0.8-0.3c-0.8-1.4-2-2-3.8-2c-1.1,0-2,0.3-2.7,1c-0.8,0.7-1.2,1.5-1.2,2.5c0,1.1,0.4,2,1.1,2.6c0.5,0.4,1.3,0.8,2.5,1.4
		c0.7,0.3,1.2,0.6,1.6,0.8c0.5,0.3,0.7,0.5,0.9,0.7c0.8,0.7,1.2,1.5,1.2,2.5s-0.3,1.9-1,2.5c-0.7,0.5-1.5,0.8-2.6,0.8
		c-2,0-3.1-0.9-3.6-2.7l-0.9,0.3c0.7,2.3,2.2,3.4,4.6,3.4c0.8,0,1.4-0.1,2-0.3C2158.1,563.1,2158.9,561.8,2158.9,559.8L2158.9,559.8
		z"/>
	<path class="st2" d="M2001.9,410.8c0,7.5-6.1,13.5-13.5,13.5s-13.5-6-13.5-13.5c0-7.4,6.1-13.5,13.5-13.5
		C1995.9,397.3,2001.9,403.4,2001.9,410.8L2001.9,410.8z"/>
	<path class="st4" d="M2069.2,470.7c0,5.8-4.7,10.5-10.5,10.5s-10.5-4.7-10.5-10.5s4.7-10.5,10.5-10.5S2069.2,464.9,2069.2,470.7
		L2069.2,470.7z"/>
	<path class="st2" d="M2062.8,433.3c-0.6,1.1-4.2,0.7-4.2,0.7c-37.7-2.2-61.3,3.3-63.1,18.1c-1.2,10.7,9.9,23.1,20.7,31.6
		c0,0,2.1,1.4,0.5,3.1c-1.2,1.3-4.3-0.1-4.3-0.1c-20.5-8.8-35.7-23.2-35.1-36.3c0.7-14.4,18-24.5,42.4-26.9
		c8.7-0.8,27.7-0.4,40.5,6.7C2060.3,430.3,2063.5,431.9,2062.8,433.3L2062.8,433.3z"/>
	<path class="st4" d="M2026.7,485.4c0,0,50.9,22.1,62.9,2c12-20-22.3-44.6-31-47.6c-5.6-1.9-4.8,1.9-2.9,3.3
		c1.8,1.4,28.1,21.7,19.3,36.3c-8,13.3-41.3,1.9-46,1.4C2024.2,480.2,2024.3,484.2,2026.7,485.4L2026.7,485.4z"/>
</g>
<g>
	<path class="st1" d="M1550.3,506.2c-0.5,0-0.9-0.2-1.5-0.5c-0.6-0.4-1.1-1.1-1.3-1.9v-0.1l-0.1-0.2c-0.3-1.6-0.8-3-1.5-4
		c-0.5-0.8-1.1-1.2-1.8-1.3l0,0l0,0c-0.6,0.1-1.2,0.5-1.7,1.3c-0.7,1-1.2,2.4-1.5,4.1l0,0v0.2c-0.3,0.9-0.8,1.6-1.3,1.9
		c-0.5,0.4-1.1,0.5-1.6,0.5c-0.6,0-1.1-0.2-1.5-0.5c-0.6-0.5-1.1-1.2-1.3-2.2c-0.8-2.7-1.3-4.7-2-6.4c-0.6-1.7-1.3-3.2-2.4-5.5
		c-1.7-3.2-2.7-6.1-3-8.4c-0.3-2.6,0.4-4.7,1.9-6c1.4-1.1,2.8-1.7,4.3-1.7c0.1,0,0.2,0,0.3,0c1.2,0,2.3,0.3,3.5,0.7l0,0
		c0.8,0.2,2.3,0.5,3.6,0.6c1.3,0.1,2.3,0.2,2.7,0.2c0.4,0,1.4-0.1,2.7-0.2c1.4-0.1,2.9-0.3,3.7-0.6l0,0c1.1-0.4,2.2-0.7,3.5-0.7
		c0.1,0,0.2,0,0.3,0c1.5,0.1,2.9,0.6,4.3,1.7c1.5,1.2,2.2,3.3,1.9,6c-0.2,2.3-1.3,5.2-2.9,8.4c-1.1,2.2-1.8,3.8-2.4,5.5
		s-1.2,3.7-2,6.4c-0.3,0.9-0.7,1.7-1.3,2.2C1551.5,506,1550.9,506.2,1550.3,506.2z"/>
	<path class="st2" d="M1517.8,448.9c0,6.7-5.4,12-12,12s-12-5.4-12-12s5.4-12,12-12S1517.8,442.3,1517.8,448.9L1517.8,448.9z"/>
	<path class="st4" d="M1577.5,502.1c0,5.1-4.2,9.3-9.3,9.3c-5.1,0-9.3-4.2-9.3-9.3c0-5.1,4.2-9.3,9.3-9.3
		C1573.3,492.8,1577.5,497,1577.5,502.1L1577.5,502.1z"/>
	<path class="st2" d="M1571.8,468.9c-0.5,1-3.7,0.7-3.7,0.7c-33.5-2-54.5,2.9-56,16.1c-1.2,9.5,8.8,20.5,18.3,28
		c0,0,1.9,1.2,0.4,2.8c-1.1,1.2-3.8-0.1-3.8-0.1c-18.3-7.9-31.8-20.6-31.2-32.3c0.6-12.8,16.1-21.8,37.7-23.9c7.8-0.7,24.6-0.4,36,6
		C1569.6,466.2,1572.5,467.7,1571.8,468.9L1571.8,468.9z"/>
	<path class="st4" d="M1539.7,515.2c0,0,45.3,19.6,56,1.8c10.6-17.8-19.8-39.7-27.5-42.3c-5-1.6-4.3,1.7-2.7,3
		c1.7,1.3,25,19.4,17.3,32.2c-7.1,11.8-36.8,1.6-41,1.2C1537.5,510.6,1537.6,514.1,1539.7,515.2L1539.7,515.2z"/>
	<path class="st2" d="M1557.9,478.1c-2.6-2.1-4.8-1.6-7-0.9c-2.1,0.7-6,0.8-6.7,0.9c-0.6-0.1-4.6-0.2-6.7-0.9
		c-2.3-0.7-4.4-1.3-7,0.9c-2.6,2.1-1.8,7.1,1.3,12.9c2.2,4.6,2.8,6.4,4.4,12.2c0.7,2.6,2.9,2.1,3.5,0.1c0.6-3.4,2.1-6.2,4.4-6.4
		c2.3,0.2,3.8,3,4.5,6.4c0.6,2,2.7,2.4,3.5-0.1c1.6-5.8,2.2-7.6,4.5-12.2C1559.7,485.2,1560.5,480.3,1557.9,478.1L1557.9,478.1z
		 M1554.4,475.1c1.5,0.1,2.9,0.5,4.5,1.8c1.7,1.4,2.3,3.6,2.1,6.4c-0.2,2.4-1.3,5.4-3,8.5c-1.1,2.2-1.8,3.7-2.4,5.4
		c-0.6,1.6-1.2,3.5-2,6.4c-0.3,1.1-0.9,1.9-1.5,2.4c-0.5,0.4-1.2,0.6-1.8,0.6s-1.2-0.2-1.7-0.6c-0.7-0.4-1.2-1.2-1.5-2.2v-0.1
		l-0.1-0.1c-0.2-1.5-0.7-2.9-1.4-3.9c-0.4-0.6-0.9-1-1.5-1.1c-0.5,0.1-1,0.5-1.4,1.1c-0.7,1-1.2,2.4-1.5,3.9v0.1v0.1
		c-0.3,1-0.9,1.8-1.5,2.2c-0.5,0.4-1.2,0.6-1.8,0.6s-1.2-0.2-1.8-0.6c-0.6-0.5-1.2-1.3-1.5-2.4c-0.8-2.8-1.3-4.7-2-6.4
		c-0.6-1.7-1.3-3.2-2.4-5.4c-1.7-3.2-2.7-6.1-3-8.5c-0.3-2.7,0.4-4.9,2-6.4c1.6-1.3,3.1-1.8,4.6-1.8c1.4-0.1,2.6,0.3,3.9,0.7
		c0.9,0.2,2.3,0.5,3.5,0.5c1.3,0.1,2.3,0.2,2.7,0.2c0.4,0,1.5-0.1,2.7-0.2c1.3-0.1,2.7-0.3,3.6-0.5l0,0
		C1551.7,475.4,1552.9,475,1554.4,475.1L1554.4,475.1z"/>
	<path class="st3" d="M1606.6,460h4.3v30.6h-4.3V460z M1642.1,460h4.1v30.6h-4.4v-23.8l-9.5,11.8h-0.8l-9.5-11.8v23.8h-4.4V460h4.2
		l10.2,12.6L1642.1,460z M1663.2,490.6h-10.4V460h8c2.6,0,4.5,0.3,5.9,1c1.5,0.7,2.5,1.6,3.2,2.8c0.8,1.2,1.2,2.6,1.2,4.2
		c0,3-1.6,5.2-4.7,6.5c2.3,0.4,4,1.3,5.4,2.7c1.3,1.5,2,3.1,2,5.1c0,1.5-0.4,2.9-1.2,4.2c-0.9,1.2-2,2.3-3.5,3
		C1667.5,490.2,1665.5,490.6,1663.2,490.6L1663.2,490.6z M1661,463.9h-3.8v9.2h2.9c2.3,0,4-0.5,4.9-1.3c1-0.9,1.5-2.1,1.5-3.5
		C1666.5,465.4,1664.7,463.9,1661,463.9L1661,463.9z M1661.3,477h-4.1v9.7h4.3c2.4,0,4-0.2,4.8-0.6c0.9-0.4,1.6-0.9,2.1-1.7
		c0.5-0.8,0.8-1.6,0.8-2.6s-0.3-1.8-0.8-2.6c-0.6-0.7-1.3-1.3-2.4-1.7C1665.1,477.2,1663.5,477,1661.3,477L1661.3,477z
		 M1688.8,459.8h3.1l13.7,30.8h-4.5l-4.1-9h-13l-3.8,9h-4.5L1688.8,459.8z M1695.2,477.7l-4.9-11.1l-4.6,11.1H1695.2z M1733.3,460
		h4.2v30.6h-3.8l-20.5-23.5v23.5h-4.2V460h3.5l20.7,23.8V460H1733.3z M1753.8,459.8h3.1l13.7,30.8h-4.5l-4.1-9h-13l-3.8,9h-4.5
		L1753.8,459.8z M1760.2,477.7l-4.9-11.1l-4.6,11.1H1760.2z M1798.6,483.5v4.8c-3.2,1.8-7,2.6-11.2,2.6c-3.4,0-6.3-0.7-8.7-2.1
		c-2.4-1.3-4.3-3.2-5.7-5.7c-1.4-2.4-2.1-5-2.1-7.8c0-4.5,1.6-8.2,4.8-11.2c3.2-3.1,7.1-4.6,11.8-4.6c3.2,0,6.8,0.9,10.7,2.6v4.7
		c-3.5-2.1-7.1-3.1-10.5-3.1c-3.5,0-6.4,1.1-8.7,3.3c-2.3,2.2-3.5,5-3.5,8.3c0,3.4,1.2,6.2,3.4,8.3c2.3,2.1,5.3,3.2,8.8,3.2
		C1791.4,486.9,1795,485.8,1798.6,483.5L1798.6,483.5z M1819,459.6c4.8,0,8.7,1.5,11.8,4.5c3.2,3,4.8,6.8,4.8,11.3
		s-1.6,8.2-4.8,11.2c-3.2,2.9-7.1,4.4-12,4.4c-4.6,0-8.4-1.5-11.5-4.4c-3.1-3-4.6-6.7-4.6-11.2c0-4.6,1.5-8.4,4.6-11.4
		S1814.3,459.6,1819,459.6L1819,459.6z M1819.2,463.7c-3.5,0-6.4,1.1-8.6,3.3c-2.3,2.2-3.4,5-3.4,8.4c0,3.3,1.2,6,3.4,8.2
		c2.3,2.2,5.1,3.3,8.5,3.3s6.3-1.1,8.5-3.4c2.3-2.2,3.4-5,3.4-8.4c0-3.2-1.1-5.9-3.4-8.2C1825.3,464.8,1822.5,463.7,1819.2,463.7
		L1819.2,463.7z"/>
	<path class="st3" d="M1618.4,509.8v-0.9c-0.7,0.5-1.3,0.9-1.8,1.2c-0.9,0.4-1.8,0.6-2.9,0.6c-1.8,0-3.4-0.6-4.5-1.8
		c-1.2-1.2-1.8-2.6-1.8-4.5c0-1.8,0.6-3.3,1.8-4.5c1.2-1.2,2.7-1.7,4.5-1.7c1,0,2,0.2,3,0.5c0.7,0.3,1.2,0.6,1.8,1.1v-1
		c-0.5-0.4-1-0.7-1.6-1c-0.9-0.3-2-0.5-3.1-0.5c-2.1,0-3.8,0.7-5.1,2c-1.3,1.3-2,3-2,5.1s0.6,3.7,2,5.1c1.3,1.3,3,2,5.1,2
		c0.1,0,0.3,0,0.5,0s0.3-0.1,0.4-0.1c1.3-0.1,2.2-0.4,2.9-0.9L1618.4,509.8z M1624.1,511.2v-0.8h-3.8v-12.9h-0.7v13.7L1624.1,511.2
		L1624.1,511.2z M1628.7,494.7l-0.4-0.4l-2.1,2.1l0.4,0.4L1628.7,494.7z M1627.1,511.2v-13.7h-0.8v13.7H1627.1z M1640.9,511.4v-13.9
		h-0.8v11.8l-10.2-11.9v13.7h0.8v-11.6L1640.9,511.4z M1643.4,511.2v-13.7h-0.7v13.7H1643.4z M1656.6,509.8v-0.9
		c-0.7,0.5-1.3,0.9-1.8,1.2c-0.8,0.4-1.8,0.6-2.9,0.6c-1.8,0-3.4-0.6-4.5-1.8c-1.2-1.2-1.7-2.6-1.7-4.5c0-1.8,0.5-3.3,1.8-4.5
		c1.2-1.2,2.6-1.7,4.5-1.7c1,0,2.1,0.2,3.1,0.5c0.6,0.3,1.2,0.6,1.7,1.1v-1c-0.5-0.4-1-0.7-1.6-1c-1-0.3-2-0.5-3.2-0.5
		c-2.1,0-3.8,0.7-5.1,2c-1.3,1.3-2,3-2,5.1s0.7,3.7,2,5.1c1.3,1.3,3,2,5.1,2c0.2,0,0.4,0,0.5,0c0.2,0,0.3-0.1,0.5-0.1
		c1.2-0.1,2.2-0.4,2.9-0.9L1656.6,509.8z M1667.8,511.2l-5.4-14.1l-5.5,14.1h0.8l1.6-4.1h6.2l1.5,4.1H1667.8z M1665.1,506.4h-5.6
		l2.8-7.2L1665.1,506.4z M1677.2,507.7c0-1.1-0.4-2-1.1-2.7c-0.2-0.2-0.6-0.5-1-0.8c-0.4-0.2-1-0.5-1.5-0.8c-1-0.4-1.6-0.7-2-1
		c-0.5-0.5-0.9-1-0.9-1.6c0-0.7,0.3-1.3,0.9-1.8c0.5-0.4,1.1-0.7,1.8-0.7c0.7,0,1.3,0.2,1.8,0.4c0.4,0.2,0.7,0.5,0.9,1l0.7-0.4
		c-0.7-1.2-1.8-1.8-3.4-1.8c-1,0-1.8,0.3-2.4,0.9c-0.7,0.6-1,1.3-1,2.3c0,0.9,0.3,1.6,1,2.3c0.4,0.4,1.1,0.8,2.2,1.2
		c0.6,0.3,1,0.5,1.4,0.7s0.7,0.4,0.9,0.5c0.7,0.6,1,1.3,1,2.3c0,0.9-0.2,1.6-0.9,2.1c-0.5,0.5-1.3,0.7-2.3,0.7
		c-1.7,0-2.7-0.8-3.2-2.4l-0.8,0.3c0.6,2,2,2.9,4,2.9c0.7,0,1.3-0.1,1.8-0.2C1676.4,510.6,1677.2,509.4,1677.2,507.7L1677.2,507.7z
		 M1697.8,504.4c0-2.1-0.6-3.8-2-5.1c-1.3-1.3-3-2-5.1-2s-3.7,0.7-5.1,2c-1.3,1.3-2,3-2,5.1s0.7,3.7,2,5.1c1.3,1.3,3,2,5.1,2
		s3.8-0.7,5.1-2C1697.2,508.1,1697.8,506.5,1697.8,504.4L1697.8,504.4z M1697,504.4c0,1.8-0.5,3.4-1.7,4.5c-1.2,1.2-2.7,1.7-4.5,1.7
		s-3.3-0.6-4.5-1.8c-1.2-1.2-1.8-2.6-1.8-4.5c0-1.8,0.6-3.3,1.8-4.5c1.2-1.2,2.6-1.7,4.5-1.7c1.8,0,3.4,0.5,4.5,1.7
		C1696.5,501,1697,502.6,1697,504.4L1697,504.4z M1710.6,504.4c0-1.9-0.5-3.5-1.6-4.8c-1.1-1.4-2.6-2.1-4.5-2.1h-4.5v13.7h4.5
		c1.8,0,3.4-0.7,4.5-2.1C1710.1,507.9,1710.6,506.2,1710.6,504.4L1710.6,504.4z M1709.8,504.4c0,1.8-0.5,3.4-1.6,4.5
		c-1,1-2.3,1.6-3.7,1.6h-3.8v-12.1h3.8c1.6,0,2.9,0.6,3.9,1.8C1709.4,501.3,1709.8,502.7,1709.8,504.4L1709.8,504.4z M1726.7,504.4
		c0-2.1-0.7-3.8-2-5.1c-1.3-1.3-3.1-2-5.1-2c-2.1,0-3.8,0.7-5.1,2c-1.3,1.3-2,3-2,5.1s0.7,3.7,2,5.1c1.3,1.3,3,2,5.1,2
		s3.7-0.7,5.1-2C1726,508.1,1726.7,506.5,1726.7,504.4L1726.7,504.4z M1725.9,504.4c0,1.8-0.5,3.4-1.7,4.5c-1.2,1.2-2.7,1.7-4.5,1.7
		s-3.4-0.6-4.5-1.8c-1.2-1.2-1.7-2.6-1.7-4.5c0-1.8,0.5-3.3,1.8-4.5c1.2-1.2,2.6-1.7,4.5-1.7c1.8,0,3.3,0.5,4.5,1.7
		C1725.3,501,1725.9,502.6,1725.9,504.4L1725.9,504.4z M1739.8,511.4v-13.9h-0.8v11.8l-10.1-11.9v13.7h0.7v-11.6L1739.8,511.4z
		 M1747.8,498.4v-0.8h-6.8v0.8h3v12.9h0.8v-12.9H1747.8z M1761.1,504.4c0-2.1-0.6-3.8-2-5.1c-1.3-1.3-3-2-5.1-2s-3.7,0.7-5.1,2
		c-1.3,1.3-2,3-2,5.1s0.7,3.7,2,5.1c1.3,1.3,3,2,5.1,2s3.8-0.7,5.1-2C1760.5,508.1,1761.1,506.5,1761.1,504.4L1761.1,504.4z
		 M1760.3,504.4c0,1.8-0.5,3.4-1.7,4.5s-2.7,1.7-4.5,1.7s-3.3-0.6-4.5-1.8c-1.2-1.2-1.8-2.6-1.8-4.5c0-1.8,0.6-3.3,1.8-4.5
		c1.2-1.2,2.6-1.7,4.5-1.7c1.8,0,3.4,0.5,4.5,1.7C1759.8,501,1760.3,502.6,1760.3,504.4L1760.3,504.4z M1767.9,511.2v-0.8h-3.8
		v-12.9h-0.7v13.7L1767.9,511.2L1767.9,511.2z M1778.4,494.7l-0.4-0.4l-2.1,2.1l0.3,0.4L1778.4,494.7z M1783.7,504.4
		c0-2.1-0.7-3.8-2-5.1c-1.3-1.3-3.1-2-5.1-2c-2.1,0-3.8,0.7-5.1,2c-1.3,1.3-2,3-2,5.1s0.7,3.7,2,5.1c1.3,1.3,3,2,5.1,2
		s3.7-0.7,5.1-2C1783,508.1,1783.7,506.5,1783.7,504.4L1783.7,504.4z M1782.9,504.4c0,1.8-0.5,3.4-1.7,4.5c-1.2,1.2-2.7,1.7-4.5,1.7
		s-3.4-0.6-4.5-1.8c-1.2-1.2-1.7-2.6-1.7-4.5c0-1.8,0.5-3.3,1.8-4.5c1.2-1.2,2.6-1.7,4.5-1.7c1.8,0,3.4,0.5,4.5,1.7
		C1782.3,501,1782.9,502.6,1782.9,504.4L1782.9,504.4z M1799.4,504.6h-5.4v0.8h4.5c-0.1,1.2-0.6,2.3-1.5,3.2c-1.2,1.3-2.7,2-4.6,2
		c-1.8,0-3.3-0.6-4.5-1.8c-1.2-1.2-1.8-2.6-1.8-4.5c0-1.8,0.5-3.3,1.8-4.5c1.2-1.2,2.7-1.8,4.5-1.8c2.2,0,3.9,0.8,5.1,2.5l0.7-0.5
		c-1.4-1.9-3.4-2.8-5.8-2.8c-2,0-3.7,0.7-5.1,2c-1.3,1.3-2,3-2,5c0,2.1,0.7,3.7,2,5.1c1.3,1.3,3,2,5.1,2c2.2,0,3.9-0.7,5.3-2.1
		C1798.8,508.1,1799.4,506.5,1799.4,504.6L1799.4,504.6z M1801.7,511.2v-13.7h-0.7v13.7H1801.7z M1815.1,509.8v-0.9
		c-0.7,0.5-1.3,0.9-1.8,1.2c-0.9,0.4-1.8,0.6-3,0.6c-1.8,0-3.3-0.6-4.5-1.8c-1.2-1.2-1.8-2.6-1.8-4.5c0-1.8,0.6-3.3,1.8-4.5
		c1.2-1.2,2.6-1.7,4.5-1.7c1,0,2.1,0.2,3.1,0.5c0.6,0.3,1.2,0.6,1.8,1.1v-1c-0.5-0.4-1.1-0.7-1.6-1c-0.9-0.3-2-0.5-3.2-0.5
		c-2.1,0-3.7,0.7-5.1,2c-1.3,1.3-2,3-2,5.1s0.7,3.7,2,5.1c1.3,1.3,3,2,5.1,2c0.2,0,0.4,0,0.5,0s0.3-0.1,0.4-0.1
		c1.2-0.1,2.2-0.4,2.9-0.9L1815.1,509.8z M1826.2,511.2l-5.4-14.1l-5.4,14.1h0.7l1.6-4.1h6.2l1.6,4.1H1826.2z M1823.5,506.4h-5.6
		l2.8-7.2L1823.5,506.4z M1835.6,507.7c0-1.1-0.4-2-1.2-2.7c-0.2-0.2-0.6-0.5-1-0.8c-0.4-0.2-0.9-0.5-1.5-0.8c-1-0.4-1.6-0.7-2-1
		c-0.5-0.5-0.8-1-0.8-1.6c0-0.7,0.2-1.3,0.8-1.8c0.5-0.4,1.1-0.7,1.9-0.7c0.7,0,1.3,0.2,1.7,0.4c0.4,0.2,0.7,0.5,0.9,1l0.7-0.4
		c-0.7-1.2-1.8-1.8-3.4-1.8c-1,0-1.8,0.3-2.5,0.9s-1,1.3-1,2.3c0,0.9,0.3,1.6,1,2.3c0.4,0.4,1.2,0.8,2.2,1.2
		c0.6,0.3,1.1,0.5,1.5,0.7s0.6,0.4,0.8,0.5c0.7,0.6,1,1.3,1,2.3c0,0.9-0.3,1.6-0.9,2.1s-1.3,0.7-2.3,0.7c-1.7,0-2.8-0.8-3.2-2.4
		l-0.8,0.3c0.5,2,2,2.9,4,2.9c0.7,0,1.2-0.1,1.8-0.2C1834.8,510.6,1835.6,509.4,1835.6,507.7L1835.6,507.7z"/>
</g>
<g>
	<path class="st3" d="M2248.7,448.9c0,6.7-5.4,12-12,12s-12-5.4-12-12s5.4-12,12-12S2248.7,442.3,2248.7,448.9L2248.7,448.9z"/>
	<path class="st3" d="M2308.4,502.1c0,5.1-4.2,9.3-9.3,9.3s-9.3-4.2-9.3-9.3c0-5.1,4.2-9.3,9.3-9.3
		C2304.2,492.8,2308.4,497,2308.4,502.1L2308.4,502.1z"/>
	<path class="st3" d="M2302.7,468.9c-0.5,1-3.7,0.7-3.7,0.7c-33.5-2-54.5,2.9-56,16.1c-1.2,9.5,8.8,20.5,18.3,28
		c0,0,1.9,1.2,0.4,2.8c-1.1,1.2-3.8-0.1-3.8-0.1c-18.3-7.9-31.8-20.6-31.2-32.3c0.6-12.8,16.1-21.8,37.7-23.9c7.8-0.7,24.6-0.4,36,6
		C2300.5,466.2,2303.4,467.7,2302.7,468.9L2302.7,468.9z"/>
	<path class="st3" d="M2270.6,515.2c0,0,45.3,19.6,56,1.8c10.6-17.8-19.8-39.7-27.5-42.3c-5-1.6-4.3,1.7-2.7,3
		c1.7,1.3,25,19.4,17.3,32.2c-7.1,11.8-36.8,1.6-41,1.2C2268.4,510.6,2268.5,514.1,2270.6,515.2L2270.6,515.2z"/>
	<path class="st3" d="M2288.8,478.1c-2.6-2.1-4.8-1.6-7-0.9c-2.1,0.7-6,0.8-6.7,0.9c-0.6-0.1-4.6-0.2-6.7-0.9
		c-2.3-0.7-4.4-1.3-7,0.9c-2.6,2.1-1.8,7.1,1.3,12.9c2.2,4.6,2.8,6.4,4.4,12.2c0.7,2.6,2.9,2.1,3.5,0.1c0.6-3.4,2.1-6.2,4.4-6.4
		c2.3,0.2,3.8,3,4.5,6.4c0.6,2,2.7,2.4,3.5-0.1c1.6-5.8,2.2-7.6,4.5-12.2C2290.6,485.2,2291.4,480.3,2288.8,478.1L2288.8,478.1z
		 M2285.3,475.1c1.5,0.1,2.9,0.5,4.5,1.8c1.7,1.4,2.3,3.6,2.1,6.4c-0.2,2.4-1.3,5.4-3,8.5c-1.1,2.2-1.8,3.7-2.4,5.4
		c-0.6,1.6-1.2,3.5-2,6.4c-0.3,1.1-0.9,1.9-1.5,2.4c-0.5,0.4-1.2,0.6-1.8,0.6s-1.2-0.2-1.7-0.6c-0.7-0.4-1.2-1.2-1.5-2.2v-0.1
		l-0.1-0.1c-0.2-1.5-0.7-2.9-1.4-3.9c-0.4-0.6-0.9-1-1.5-1.1c-0.5,0.1-1,0.5-1.4,1.1c-0.7,1-1.2,2.4-1.5,3.9v0.1v0.1
		c-0.3,1-0.9,1.8-1.5,2.2c-0.5,0.4-1.2,0.6-1.8,0.6s-1.2-0.2-1.8-0.6c-0.6-0.5-1.2-1.3-1.5-2.4c-0.8-2.8-1.3-4.7-2-6.4
		c-0.6-1.7-1.3-3.2-2.4-5.4c-1.7-3.2-2.7-6.1-3-8.5c-0.3-2.7,0.4-4.9,2-6.4c1.6-1.3,3.1-1.8,4.6-1.8c1.4-0.1,2.6,0.3,3.9,0.7
		c0.9,0.2,2.3,0.5,3.5,0.5c1.3,0.1,2.3,0.2,2.7,0.2s1.5-0.1,2.7-0.2c1.3-0.1,2.7-0.3,3.6-0.5l0,0
		C2282.6,475.4,2283.8,475,2285.3,475.1L2285.3,475.1z"/>
	<path class="st3" d="M2337.5,460h4.3v30.6h-4.3V460z M2373,460h4.1v30.6h-4.4v-23.8l-9.5,11.8h-0.8l-9.5-11.8v23.8h-4.4V460h4.2
		l10.2,12.6L2373,460z M2394.1,490.6h-10.4V460h8c2.6,0,4.5,0.3,5.9,1c1.5,0.7,2.5,1.6,3.2,2.8c0.8,1.2,1.2,2.6,1.2,4.2
		c0,3-1.6,5.2-4.7,6.5c2.3,0.4,4,1.3,5.4,2.7c1.3,1.5,2,3.1,2,5.1c0,1.5-0.4,2.9-1.2,4.2c-0.9,1.2-2,2.3-3.5,3
		C2398.4,490.2,2396.4,490.6,2394.1,490.6L2394.1,490.6z M2391.9,463.9h-3.8v9.2h2.9c2.3,0,4-0.5,4.9-1.3c1-0.9,1.5-2.1,1.5-3.5
		C2397.4,465.4,2395.6,463.9,2391.9,463.9L2391.9,463.9z M2392.2,477h-4.1v9.7h4.3c2.4,0,4-0.2,4.8-0.6c0.9-0.4,1.6-0.9,2.1-1.7
		c0.5-0.8,0.8-1.6,0.8-2.6s-0.3-1.8-0.8-2.6c-0.6-0.7-1.3-1.3-2.4-1.7C2396,477.2,2394.4,477,2392.2,477L2392.2,477z M2419.7,459.8
		h3.1l13.7,30.8h-4.5l-4.1-9h-13l-3.8,9h-4.5L2419.7,459.8z M2426.1,477.7l-4.9-11.1l-4.6,11.1H2426.1z M2464.2,460h4.2v30.6h-3.8
		l-20.5-23.5v23.5h-4.2V460h3.5l20.7,23.8V460H2464.2z M2484.7,459.8h3.1l13.7,30.8h-4.5l-4.1-9h-13l-3.8,9h-4.5L2484.7,459.8z
		 M2491.1,477.7l-4.9-11.1l-4.6,11.1H2491.1z M2529.5,483.5v4.8c-3.2,1.8-7,2.6-11.2,2.6c-3.4,0-6.3-0.7-8.7-2.1
		c-2.4-1.3-4.3-3.2-5.7-5.7c-1.4-2.4-2.1-5-2.1-7.8c0-4.5,1.6-8.2,4.8-11.2c3.2-3.1,7.1-4.6,11.8-4.6c3.2,0,6.8,0.9,10.7,2.6v4.7
		c-3.5-2.1-7.1-3.1-10.5-3.1c-3.5,0-6.4,1.1-8.7,3.3c-2.3,2.2-3.5,5-3.5,8.3c0,3.4,1.2,6.2,3.4,8.3c2.3,2.1,5.3,3.2,8.8,3.2
		C2522.3,486.9,2525.9,485.8,2529.5,483.5L2529.5,483.5z M2549.9,459.6c4.8,0,8.7,1.5,11.8,4.5c3.2,3,4.8,6.8,4.8,11.3
		s-1.6,8.2-4.8,11.2c-3.2,2.9-7.1,4.4-12,4.4c-4.6,0-8.4-1.5-11.5-4.4c-3.1-3-4.6-6.7-4.6-11.2c0-4.6,1.5-8.4,4.6-11.4
		S2545.2,459.6,2549.9,459.6L2549.9,459.6z M2550.1,463.7c-3.5,0-6.4,1.1-8.6,3.3c-2.3,2.2-3.4,5-3.4,8.4c0,3.3,1.2,6,3.4,8.2
		c2.3,2.2,5.1,3.3,8.5,3.3s6.3-1.1,8.5-3.4c2.3-2.2,3.4-5,3.4-8.4c0-3.2-1.1-5.9-3.4-8.2C2556.2,464.8,2553.4,463.7,2550.1,463.7
		L2550.1,463.7z"/>
	<path class="st3" d="M2349.3,509.8v-0.9c-0.7,0.5-1.3,0.9-1.8,1.2c-0.9,0.4-1.8,0.6-2.9,0.6c-1.8,0-3.4-0.6-4.5-1.8
		c-1.2-1.2-1.8-2.6-1.8-4.5c0-1.8,0.6-3.3,1.8-4.5s2.7-1.7,4.5-1.7c1,0,2,0.2,3,0.5c0.7,0.3,1.2,0.6,1.8,1.1v-1
		c-0.5-0.4-1-0.7-1.6-1c-0.9-0.3-2-0.5-3.1-0.5c-2.1,0-3.8,0.7-5.1,2s-2,3-2,5.1s0.6,3.7,2,5.1c1.3,1.3,3,2,5.1,2c0.1,0,0.3,0,0.5,0
		s0.3-0.1,0.4-0.1c1.3-0.1,2.2-0.4,2.9-0.9L2349.3,509.8z M2355,511.2v-0.8h-3.8v-12.9h-0.7v13.7L2355,511.2L2355,511.2z
		 M2359.6,494.7l-0.4-0.4l-2.1,2.1l0.4,0.4L2359.6,494.7z M2358,511.2v-13.7h-0.8v13.7H2358z M2371.9,511.4v-13.9h-0.8v11.8
		l-10.2-11.9v13.7h0.8v-11.6L2371.9,511.4z M2374.3,511.2v-13.7h-0.7v13.7H2374.3z M2387.5,509.8v-0.9c-0.7,0.5-1.3,0.9-1.8,1.2
		c-0.8,0.4-1.8,0.6-2.9,0.6c-1.8,0-3.4-0.6-4.5-1.8c-1.2-1.2-1.7-2.6-1.7-4.5c0-1.8,0.5-3.3,1.8-4.5c1.2-1.2,2.6-1.7,4.5-1.7
		c1,0,2.1,0.2,3.1,0.5c0.6,0.3,1.2,0.6,1.7,1.1v-1c-0.5-0.4-1-0.7-1.6-1c-1-0.3-2-0.5-3.2-0.5c-2.1,0-3.8,0.7-5.1,2s-2,3-2,5.1
		s0.7,3.7,2,5.1c1.3,1.3,3,2,5.1,2c0.2,0,0.4,0,0.5,0c0.2,0,0.3-0.1,0.5-0.1c1.2-0.1,2.2-0.4,2.9-0.9L2387.5,509.8z M2398.7,511.2
		l-5.4-14.1l-5.5,14.1h0.8l1.6-4.1h6.2l1.5,4.1H2398.7z M2396,506.4h-5.6l2.8-7.2L2396,506.4z M2408.1,507.7c0-1.1-0.4-2-1.1-2.7
		c-0.2-0.2-0.6-0.5-1-0.8c-0.4-0.2-1-0.5-1.5-0.8c-1-0.4-1.6-0.7-2-1c-0.5-0.5-0.9-1-0.9-1.6c0-0.7,0.3-1.3,0.9-1.8
		c0.5-0.4,1.1-0.7,1.8-0.7s1.3,0.2,1.8,0.4c0.4,0.2,0.7,0.5,0.9,1l0.7-0.4c-0.7-1.2-1.8-1.8-3.4-1.8c-1,0-1.8,0.3-2.4,0.9
		c-0.7,0.6-1,1.3-1,2.3c0,0.9,0.3,1.6,1,2.3c0.4,0.4,1.1,0.8,2.2,1.2c0.6,0.3,1,0.5,1.4,0.7s0.7,0.4,0.9,0.5c0.7,0.6,1,1.3,1,2.3
		c0,0.9-0.2,1.6-0.9,2.1c-0.5,0.5-1.3,0.7-2.3,0.7c-1.7,0-2.7-0.8-3.2-2.4l-0.8,0.3c0.6,2,2,2.9,4,2.9c0.7,0,1.3-0.1,1.8-0.2
		C2407.3,510.6,2408.1,509.4,2408.1,507.7L2408.1,507.7z M2428.7,504.4c0-2.1-0.6-3.8-2-5.1c-1.3-1.3-3-2-5.1-2s-3.7,0.7-5.1,2
		c-1.3,1.3-2,3-2,5.1s0.7,3.7,2,5.1c1.3,1.3,3,2,5.1,2s3.8-0.7,5.1-2C2428.1,508.1,2428.7,506.5,2428.7,504.4L2428.7,504.4z
		 M2427.9,504.4c0,1.8-0.5,3.4-1.7,4.5s-2.7,1.7-4.5,1.7s-3.3-0.6-4.5-1.8c-1.2-1.2-1.8-2.6-1.8-4.5c0-1.8,0.6-3.3,1.8-4.5
		s2.6-1.7,4.5-1.7s3.4,0.5,4.5,1.7C2427.4,501,2427.9,502.6,2427.9,504.4L2427.9,504.4z M2441.5,504.4c0-1.9-0.5-3.5-1.6-4.8
		c-1.1-1.4-2.6-2.1-4.5-2.1h-4.5v13.7h4.5c1.8,0,3.4-0.7,4.5-2.1C2441,507.9,2441.5,506.2,2441.5,504.4L2441.5,504.4z M2440.7,504.4
		c0,1.8-0.5,3.4-1.6,4.5c-1,1-2.3,1.6-3.7,1.6h-3.8v-12.1h3.8c1.6,0,2.9,0.6,3.9,1.8C2440.3,501.3,2440.7,502.7,2440.7,504.4
		L2440.7,504.4z M2457.6,504.4c0-2.1-0.7-3.8-2-5.1c-1.3-1.3-3.1-2-5.1-2c-2.1,0-3.8,0.7-5.1,2s-2,3-2,5.1s0.7,3.7,2,5.1
		c1.3,1.3,3,2,5.1,2s3.7-0.7,5.1-2C2456.9,508.1,2457.6,506.5,2457.6,504.4L2457.6,504.4z M2456.8,504.4c0,1.8-0.5,3.4-1.7,4.5
		c-1.2,1.2-2.7,1.7-4.5,1.7s-3.4-0.6-4.5-1.8c-1.2-1.2-1.7-2.6-1.7-4.5c0-1.8,0.5-3.3,1.8-4.5c1.2-1.2,2.6-1.7,4.5-1.7
		s3.3,0.5,4.5,1.7C2456.2,501,2456.8,502.6,2456.8,504.4L2456.8,504.4z M2470.7,511.4v-13.9h-0.8v11.8l-10.1-11.9v13.7h0.7v-11.6
		L2470.7,511.4z M2478.7,498.4v-0.8h-6.8v0.8h3v12.9h0.8v-12.9H2478.7z M2492,504.4c0-2.1-0.6-3.8-2-5.1c-1.3-1.3-3-2-5.1-2
		s-3.7,0.7-5.1,2c-1.3,1.3-2,3-2,5.1s0.7,3.7,2,5.1c1.3,1.3,3,2,5.1,2s3.8-0.7,5.1-2C2491.4,508.1,2492,506.5,2492,504.4L2492,504.4
		z M2491.2,504.4c0,1.8-0.5,3.4-1.7,4.5c-1.2,1.2-2.7,1.7-4.5,1.7s-3.3-0.6-4.5-1.8c-1.2-1.2-1.8-2.6-1.8-4.5c0-1.8,0.6-3.3,1.8-4.5
		s2.6-1.7,4.5-1.7s3.4,0.5,4.5,1.7C2490.7,501,2491.2,502.6,2491.2,504.4L2491.2,504.4z M2498.8,511.2v-0.8h-3.8v-12.9h-0.7v13.7
		L2498.8,511.2L2498.8,511.2z M2509.3,494.7l-0.4-0.4l-2.1,2.1l0.3,0.4L2509.3,494.7z M2514.6,504.4c0-2.1-0.7-3.8-2-5.1
		c-1.3-1.3-3.1-2-5.1-2c-2.1,0-3.8,0.7-5.1,2s-2,3-2,5.1s0.7,3.7,2,5.1c1.3,1.3,3,2,5.1,2s3.7-0.7,5.1-2
		C2513.9,508.1,2514.6,506.5,2514.6,504.4L2514.6,504.4z M2513.8,504.4c0,1.8-0.5,3.4-1.7,4.5c-1.2,1.2-2.7,1.7-4.5,1.7
		s-3.4-0.6-4.5-1.8c-1.2-1.2-1.7-2.6-1.7-4.5c0-1.8,0.5-3.3,1.8-4.5c1.2-1.2,2.6-1.7,4.5-1.7s3.4,0.5,4.5,1.7
		C2513.2,501,2513.8,502.6,2513.8,504.4L2513.8,504.4z M2530.3,504.6h-5.4v0.8h4.5c-0.1,1.2-0.6,2.3-1.5,3.2c-1.2,1.3-2.7,2-4.6,2
		c-1.8,0-3.3-0.6-4.5-1.8c-1.2-1.2-1.8-2.6-1.8-4.5c0-1.8,0.5-3.3,1.8-4.5c1.2-1.2,2.7-1.8,4.5-1.8c2.2,0,3.9,0.8,5.1,2.5l0.7-0.5
		c-1.4-1.9-3.4-2.8-5.8-2.8c-2,0-3.7,0.7-5.1,2c-1.3,1.3-2,3-2,5c0,2.1,0.7,3.7,2,5.1c1.3,1.3,3,2,5.1,2c2.2,0,3.9-0.7,5.3-2.1
		C2529.7,508.1,2530.3,506.5,2530.3,504.6L2530.3,504.6z M2532.6,511.2v-13.7h-0.7v13.7H2532.6z M2546,509.8v-0.9
		c-0.7,0.5-1.3,0.9-1.8,1.2c-0.9,0.4-1.8,0.6-3,0.6c-1.8,0-3.3-0.6-4.5-1.8c-1.2-1.2-1.8-2.6-1.8-4.5c0-1.8,0.6-3.3,1.8-4.5
		s2.6-1.7,4.5-1.7c1,0,2.1,0.2,3.1,0.5c0.6,0.3,1.2,0.6,1.8,1.1v-1c-0.5-0.4-1.1-0.7-1.6-1c-0.9-0.3-2-0.5-3.2-0.5
		c-2.1,0-3.7,0.7-5.1,2c-1.3,1.3-2,3-2,5.1s0.7,3.7,2,5.1c1.3,1.3,3,2,5.1,2c0.2,0,0.4,0,0.5,0s0.3-0.1,0.4-0.1
		c1.2-0.1,2.2-0.4,2.9-0.9L2546,509.8z M2557.1,511.2l-5.4-14.1l-5.4,14.1h0.7l1.6-4.1h6.2l1.6,4.1H2557.1z M2554.4,506.4h-5.6
		l2.8-7.2L2554.4,506.4z M2566.5,507.7c0-1.1-0.4-2-1.2-2.7c-0.2-0.2-0.6-0.5-1-0.8c-0.4-0.2-0.9-0.5-1.5-0.8c-1-0.4-1.6-0.7-2-1
		c-0.5-0.5-0.8-1-0.8-1.6c0-0.7,0.2-1.3,0.8-1.8c0.5-0.4,1.1-0.7,1.9-0.7c0.7,0,1.3,0.2,1.7,0.4c0.4,0.2,0.7,0.5,0.9,1l0.7-0.4
		c-0.7-1.2-1.8-1.8-3.4-1.8c-1,0-1.8,0.3-2.5,0.9s-1,1.3-1,2.3c0,0.9,0.3,1.6,1,2.3c0.4,0.4,1.2,0.8,2.2,1.2
		c0.6,0.3,1.1,0.5,1.5,0.7s0.6,0.4,0.8,0.5c0.7,0.6,1,1.3,1,2.3c0,0.9-0.3,1.6-0.9,2.1c-0.6,0.5-1.3,0.7-2.3,0.7
		c-1.7,0-2.8-0.8-3.2-2.4l-0.8,0.3c0.5,2,2,2.9,4,2.9c0.7,0,1.2-0.1,1.8-0.2C2565.7,510.6,2566.5,509.4,2566.5,507.7L2566.5,507.7z"
		/>
</g>
<g>
	<path class="st1" d="M3059,155.4c-2.9-2.4-5.3-1.8-7.9-0.9c-2.3,0.7-6.8,0.9-7.5,0.9s-5.2-0.2-7.5-0.9c-2.5-0.8-5-1.5-7.9,0.9
		s-2.1,8,1.5,14.6c2.5,5.1,3.2,7.2,5,13.7c0.8,2.9,3.3,2.5,4,0.1c0.7-3.7,2.3-6.9,4.9-7.1c2.6,0.2,4.3,3.4,4.9,7.1
		c0.7,2.3,3.2,2.8,4-0.1c1.8-6.5,2.5-8.5,5-13.7C3061,163.4,3061.8,157.8,3059,155.4L3059,155.4z M3055,152c1.6,0,3.3,0.6,5.1,2.1
		c2,1.6,2.7,4,2.3,7.1c-0.3,2.7-1.5,6.1-3.4,9.6c-1.2,2.5-2,4.2-2.7,6.1c-0.7,1.9-1.3,4-2.2,7.2c-0.3,1.2-0.9,2.1-1.6,2.7
		c-0.7,0.5-1.4,0.7-2,0.7c-0.7,0-1.4-0.2-2-0.7c-0.8-0.5-1.4-1.4-1.8-2.5v-0.1v-0.1c-0.3-1.8-0.8-3.3-1.6-4.4
		c-0.5-0.7-1-1.2-1.6-1.2c-0.6,0.1-1.1,0.5-1.6,1.2c-0.7,1.1-1.3,2.7-1.6,4.4v0.1v0.1c-0.3,1.1-1,2-1.8,2.5
		c-0.6,0.5-1.2,0.7-1.9,0.7s-1.4-0.2-2-0.7c-0.7-0.5-1.4-1.4-1.7-2.7c-0.9-3.2-1.5-5.3-2.2-7.2s-1.4-3.6-2.7-6.1
		c-1.9-3.5-3.1-6.9-3.4-9.6c-0.3-3.1,0.4-5.5,2.3-7.1c1.8-1.5,3.4-2.1,5.1-2.1c1.6-0.1,3,0.3,4.4,0.8c1,0.3,2.6,0.5,4,0.7
		c1.4,0.1,2.6,0.2,3,0.2s1.6-0.1,3-0.2c1.4-0.1,3-0.3,4-0.7l0,0C3052,152.3,3053.4,151.9,3055,152L3055,152z"/>
	<path class="st1" d="M2913.2,217.9h4.9v34.4h-4.9V217.9z M2953.2,217.9h4.6v34.4h-4.9v-26.8l-10.6,13.3h-0.9l-10.7-13.3v26.8h-4.9
		v-34.4h4.6l11.5,14.1L2953.2,217.9z M2976.9,252.3h-11.6v-34.4h9c2.9,0,5.1,0.3,6.7,1.1c1.6,0.8,2.8,1.8,3.6,3.2
		c0.8,1.3,1.2,2.9,1.2,4.6c0,3.4-1.8,5.8-5.3,7.3c2.5,0.5,4.6,1.5,6.1,3.1s2.2,3.4,2.2,5.7c0,1.8-0.5,3.3-1.4,4.7s-2.2,2.5-4,3.4
		C2981.7,251.9,2979.5,252.3,2976.9,252.3L2976.9,252.3z M2974.4,222.3h-4.3v10.3h3.3c2.6,0,4.5-0.5,5.6-1.5s1.7-2.3,1.7-3.9
		C2980.7,223.9,2978.6,222.3,2974.4,222.3L2974.4,222.3z M2974.7,237.1h-4.6V248h4.9c2.7,0,4.6-0.3,5.5-0.7c1-0.5,1.8-1.1,2.3-2
		c0.6-0.9,0.8-1.9,0.8-2.9s-0.3-2-0.9-2.9c-0.6-0.8-1.5-1.5-2.6-1.9C2979,237.2,2977.2,237.1,2974.7,237.1L2974.7,237.1z
		 M3005.7,217.7h3.5l15.4,34.6h-5l-4.6-10.2h-14.6l-4.4,10.2h-5L3005.7,217.7z M3012.9,237.8l-5.5-12.5l-5.1,12.5H3012.9z
		 M3055.8,217.9h4.7v34.4h-4.3l-23-26.5v26.5h-4.6v-34.4h4l23.3,26.7L3055.8,217.9L3055.8,217.9z M3078.8,217.7h3.4l15.4,34.6h-5
		l-4.6-10.2h-14.6l-4.4,10.2h-5L3078.8,217.7z M3086,237.8l-5.5-12.5l-5.1,12.5H3086z M3129.2,244.3v5.5c-3.6,2-7.8,2.9-12.6,2.9
		c-3.8,0-7.1-0.8-9.8-2.3s-4.8-3.6-6.4-6.4c-1.6-2.7-2.3-5.6-2.3-8.8c0-5,1.8-9.2,5.4-12.6c3.6-3.4,7.9-5.1,13.2-5.1
		c3.6,0,7.6,0.9,12,2.8v5.3c-4-2.3-7.9-3.4-11.8-3.4c-4,0-7.2,1.2-9.8,3.7s-3.9,5.6-3.9,9.4s1.2,6.9,3.8,9.3
		c2.5,2.5,5.9,3.6,9.8,3.6C3121.1,248.2,3125.2,246.9,3129.2,244.3L3129.2,244.3z M3152.2,217.4c5.3,0,9.8,1.7,13.3,5.1
		c3.5,3.3,5.3,7.5,5.3,12.6s-1.8,9.3-5.3,12.6s-8.1,5-13.5,5c-5.2,0-9.5-1.7-13-5s-5.2-7.5-5.2-12.5c0-5.1,1.8-9.4,5.2-12.8
		C3142.5,219.1,3146.8,217.4,3152.2,217.4L3152.2,217.4z M3152.4,222.1c-3.9,0-7.2,1.2-9.7,3.7s-3.8,5.6-3.8,9.4
		c0,3.7,1.3,6.8,3.8,9.2c2.5,2.5,5.7,3.7,9.6,3.7c3.8,0,7-1.2,9.6-3.8c2.6-2.5,3.8-5.6,3.8-9.4c0-3.6-1.2-6.7-3.8-9.2
		C3159.3,223.3,3156.1,222.1,3152.4,222.1L3152.4,222.1z"/>
	<path class="st1" d="M2926.4,273.9v-1c-0.8,0.6-1.5,1-2,1.3c-1,0.5-2.1,0.7-3.4,0.7c-2,0-3.7-0.7-5-2s-2-2.9-2-5c0-2,0.7-3.7,2-5.1
		c1.3-1.3,3-2,5-2c1.2,0,2.3,0.2,3.4,0.7c0.7,0.3,1.4,0.7,2,1.2v-1.1c-0.6-0.5-1.2-0.8-1.8-1c-1-0.4-2.2-0.6-3.6-0.6
		c-2.3,0-4.2,0.7-5.7,2.2c-1.5,1.4-2.2,3.3-2.2,5.7s0.7,4.2,2.2,5.7c1.5,1.4,3.4,2.1,5.7,2.1c0.2,0,0.4,0,0.6,0c0.2,0,0.4,0,0.5,0
		c1.4-0.1,2.5-0.5,3.3-1.1L2926.4,273.9z M2932.9,275.5v-0.9h-4.3v-14.4h-0.8v15.4h5.1V275.5z M2938.1,256.9l-0.5-0.4l-2.4,2.4
		l0.5,0.4L2938.1,256.9z M2936.3,275.5v-15.4h-0.8v15.4H2936.3z M2951.9,275.8v-15.6h-0.9v13.3l-11.5-13.5v15.5h0.8v-13
		L2951.9,275.8z M2954.6,275.5v-15.4h-0.8v15.4H2954.6z M2969.5,273.9v-1c-0.8,0.6-1.5,1-2,1.3c-1,0.5-2.1,0.7-3.3,0.7
		c-2.1,0-3.8-0.7-5.1-2s-2-2.9-2-5c0-2,0.7-3.7,2-5.1c1.3-1.3,3-2,5.1-2c1.2,0,2.3,0.2,3.4,0.7c0.7,0.3,1.4,0.7,2,1.2v-1.1
		c-0.6-0.5-1.2-0.8-1.8-1c-1-0.4-2.2-0.6-3.5-0.6c-2.3,0-4.2,0.7-5.7,2.2c-1.5,1.4-2.2,3.3-2.2,5.7s0.8,4.2,2.2,5.7
		c1.5,1.4,3.4,2.1,5.7,2.1c0.2,0,0.4,0,0.5,0c0.2,0,0.4,0,0.5,0c1.4-0.1,2.5-0.5,3.3-1.1L2969.5,273.9z M2982.1,275.5l-6.1-15.9
		l-6.1,15.9h0.8l1.8-4.6h7l1.8,4.6H2982.1z M2979.1,270h-6.2l3.1-8.1L2979.1,270z M2992.6,271.5c0-1.2-0.4-2.2-1.2-3.1
		c-0.3-0.3-0.7-0.6-1.2-0.9s-1.1-0.6-1.8-0.8c-1.1-0.5-1.8-0.9-2.1-1.2c-0.7-0.6-1-1.2-1-2s0.3-1.4,0.9-2c0.6-0.5,1.3-0.7,2.1-0.7
		s1.4,0.1,2,0.5c0.4,0.3,0.7,0.6,1,1l0.8-0.3c-0.7-1.4-2-2-3.8-2c-1.1,0-2,0.3-2.8,1c-0.7,0.7-1.1,1.5-1.1,2.5c0,1.1,0.3,2,1.1,2.6
		c0.5,0.4,1.3,0.8,2.5,1.4c0.7,0.3,1.2,0.6,1.6,0.8c0.4,0.3,0.7,0.5,0.9,0.7c0.8,0.7,1.1,1.5,1.1,2.5s-0.3,1.9-0.9,2.5
		c-0.7,0.5-1.5,0.8-2.6,0.8c-2,0-3.2-0.9-3.7-2.7l-0.8,0.3c0.7,2.3,2.1,3.4,4.6,3.4c0.7,0,1.4-0.1,2-0.3
		C2991.8,274.8,2992.6,273.5,2992.6,271.5L2992.6,271.5z M3015.9,267.8c0-2.3-0.8-4.2-2.2-5.7c-1.5-1.4-3.4-2.1-5.7-2.1
		s-4.2,0.7-5.7,2.2c-1.5,1.4-2.2,3.3-2.2,5.7s0.7,4.2,2.2,5.7c1.4,1.4,3.4,2.1,5.7,2.1s4.2-0.7,5.7-2.2
		C3015.1,272.1,3015.9,270.2,3015.9,267.8L3015.9,267.8z M3015,267.8c0,2.1-0.7,3.8-2,5.1c-1.3,1.3-3,2-5.1,2c-2,0-3.7-0.7-5-2
		s-2-2.9-2-5c0-2,0.7-3.7,2-5.1c1.3-1.3,3-2,5-2c2.1,0,3.8,0.7,5.1,2C3014.3,264.1,3015,265.8,3015,267.8L3015,267.8z M3030.3,267.8
		c0-2.1-0.6-3.9-1.8-5.3c-1.3-1.6-2.9-2.3-5-2.3h-5.1v15.4h5.1c2.1,0,3.8-0.8,5-2.3C3029.7,271.7,3030.3,269.9,3030.3,267.8
		L3030.3,267.8z M3029.4,267.8c0,2.1-0.7,3.8-1.9,5s-2.5,1.8-4.1,1.8h-4.3V261h4.3c1.8,0,3.3,0.7,4.4,2.1
		C3028.9,264.4,3029.4,265.9,3029.4,267.8L3029.4,267.8z M3048.4,267.8c0-2.3-0.8-4.2-2.2-5.7c-1.5-1.4-3.4-2.1-5.7-2.1
		s-4.2,0.7-5.7,2.2c-1.5,1.4-2.2,3.3-2.2,5.7s0.7,4.2,2.2,5.7c1.4,1.4,3.3,2.1,5.7,2.1s4.2-0.7,5.7-2.2
		C3047.6,272.1,3048.4,270.2,3048.4,267.8L3048.4,267.8z M3047.4,267.8c0,2.1-0.7,3.8-2,5.1c-1.3,1.3-3,2-5.1,2c-2,0-3.7-0.7-5-2
		c-1.4-1.3-2-2.9-2-5c0-2,0.7-3.7,2-5.1c1.3-1.3,3-2,5-2c2.1,0,3.8,0.7,5.1,2C3046.8,264.1,3047.4,265.8,3047.4,267.8L3047.4,267.8z
		 M3063.1,275.8v-15.6h-0.8v13.3l-11.5-13.5v15.5h0.9v-13L3063.1,275.8z M3072.1,261.1v-0.9h-7.7v0.9h3.4v14.4h0.8v-14.4H3072.1z
		 M3087.1,267.8c0-2.3-0.8-4.2-2.3-5.7c-1.4-1.4-3.4-2.1-5.7-2.1s-4.2,0.7-5.7,2.2c-1.4,1.4-2.1,3.3-2.1,5.7s0.7,4.2,2.2,5.7
		c1.4,1.4,3.3,2.1,5.7,2.1s4.2-0.7,5.7-2.2C3086.4,272.1,3087.1,270.2,3087.1,267.8L3087.1,267.8z M3086.2,267.8
		c0,2.1-0.7,3.8-2,5.1s-3,2-5.1,2s-3.7-0.7-5.1-2c-1.3-1.3-2-2.9-2-5c0-2,0.7-3.7,2-5.1c1.3-1.3,3-2,5-2c2.1,0,3.8,0.7,5.1,2
		S3086.2,265.8,3086.2,267.8L3086.2,267.8z M3094.7,275.5v-0.9h-4.3v-14.4h-0.8v15.4h5.1V275.5z M3106.5,256.9l-0.4-0.4l-2.4,2.4
		l0.5,0.4L3106.5,256.9z M3112.5,267.8c0-2.3-0.8-4.2-2.2-5.7c-1.5-1.4-3.4-2.1-5.7-2.1s-4.2,0.7-5.7,2.2c-1.5,1.4-2.2,3.3-2.2,5.7
		s0.7,4.2,2.2,5.7c1.4,1.4,3.3,2.1,5.7,2.1s4.2-0.7,5.7-2.2C3111.7,272.1,3112.5,270.2,3112.5,267.8L3112.5,267.8z M3111.5,267.8
		c0,2.1-0.7,3.8-2,5.1c-1.3,1.3-3,2-5.1,2c-2,0-3.7-0.7-5.1-2c-1.3-1.3-2-2.9-2-5c0-2,0.7-3.7,2-5.1c1.3-1.3,3-2,5-2
		c2.1,0,3.8,0.7,5.1,2C3110.9,264.1,3111.5,265.8,3111.5,267.8L3111.5,267.8z M3130.1,268.1h-6.1v0.9h5.1c-0.1,1.4-0.7,2.6-1.7,3.6
		c-1.3,1.5-3.1,2.2-5.2,2.2c-2,0-3.7-0.7-5.1-2c-1.3-1.3-2-3-2-5s0.7-3.7,2-5c1.4-1.4,3.1-2,5.1-2c2.5,0,4.4,1,5.8,2.9l0.7-0.6
		c-1.6-2.1-3.8-3.1-6.5-3.1c-2.3,0-4.2,0.7-5.7,2.2c-1.4,1.5-2.2,3.4-2.2,5.7c0,2.3,0.8,4.2,2.2,5.7c1.5,1.4,3.4,2.1,5.7,2.1
		c2.4,0,4.4-0.8,5.9-2.3C3129.4,271.9,3130.1,270.2,3130.1,268.1L3130.1,268.1z M3132.8,275.5v-15.4h-0.9v15.4H3132.8z
		 M3147.7,273.9v-1c-0.8,0.6-1.5,1-2.1,1.3c-0.9,0.5-2,0.7-3.3,0.7c-2.1,0-3.7-0.7-5.1-2c-1.3-1.3-2-2.9-2-5c0-2,0.7-3.7,2-5.1
		c1.3-1.3,3-2,5-2c1.2,0,2.3,0.2,3.4,0.7c0.7,0.3,1.4,0.7,2,1.2v-1.1c-0.6-0.5-1.2-0.8-1.8-1c-1-0.4-2.3-0.6-3.6-0.6
		c-2.3,0-4.2,0.7-5.7,2.2c-1.4,1.4-2.1,3.3-2.1,5.7s0.7,4.2,2.2,5.7c1.4,1.4,3.3,2.1,5.7,2.1c0.2,0,0.4,0,0.6,0c0.2,0,0.3,0,0.5,0
		c1.4-0.1,2.5-0.5,3.3-1.1L3147.7,273.9z M3160.3,275.5l-6.2-15.9l-6.1,15.9h0.8l1.8-4.6h7l1.8,4.6H3160.3z M3157.3,270h-6.3
		l3.1-8.1L3157.3,270z M3170.8,271.5c0-1.2-0.4-2.2-1.2-3.1c-0.3-0.3-0.7-0.6-1.2-0.9s-1-0.6-1.8-0.8c-1-0.5-1.8-0.9-2.1-1.2
		c-0.6-0.6-0.9-1.2-0.9-2s0.3-1.4,0.9-2c0.5-0.5,1.2-0.7,2.1-0.7c0.8,0,1.4,0.1,2,0.5c0.4,0.3,0.8,0.6,1,1l0.8-0.3
		c-0.8-1.4-2-2-3.8-2c-1.1,0-2,0.3-2.7,1c-0.8,0.7-1.2,1.5-1.2,2.5c0,1.1,0.4,2,1.1,2.6c0.5,0.4,1.3,0.8,2.5,1.4
		c0.7,0.3,1.2,0.6,1.6,0.8c0.5,0.3,0.7,0.5,0.9,0.7c0.8,0.7,1.2,1.5,1.2,2.5s-0.3,1.9-1,2.5c-0.7,0.5-1.5,0.8-2.6,0.8
		c-2,0-3.1-0.9-3.6-2.7l-0.9,0.3c0.7,2.3,2.2,3.4,4.6,3.4c0.8,0,1.4-0.1,2-0.3C3170,274.8,3170.8,273.5,3170.8,271.5L3170.8,271.5z"
		/>
	<path class="st1" d="M3013.8,122.5c0,7.5-6.1,13.5-13.5,13.5s-13.5-6-13.5-13.5c0-7.4,6.1-13.5,13.5-13.5
		S3013.8,115.1,3013.8,122.5L3013.8,122.5z"/>
	<path class="st1" d="M3081,182.4c0,5.8-4.7,10.5-10.5,10.5s-10.5-4.7-10.5-10.5s4.7-10.5,10.5-10.5S3081,176.6,3081,182.4
		L3081,182.4z"/>
	<path class="st1" d="M3074.6,145c-0.6,1.1-4.2,0.7-4.2,0.7c-37.7-2.2-61.3,3.3-63.1,18.1c-1.2,10.7,9.9,23.1,20.7,31.6
		c0,0,2.1,1.4,0.5,3.1c-1.2,1.3-4.3-0.1-4.3-0.1c-20.5-8.8-35.7-23.2-35.1-36.3c0.7-14.4,18-24.5,42.4-26.9
		c8.7-0.8,27.7-0.4,40.5,6.7C3072.1,142,3075.4,143.7,3074.6,145L3074.6,145z"/>
	<path class="st1" d="M3038.5,197.1c0,0,50.9,22.1,62.9,2c12-20-22.3-44.6-31-47.6c-5.6-1.9-4.8,1.9-2.9,3.3
		c1.8,1.4,28.1,21.7,19.3,36.3c-8,13.3-41.3,1.9-46,1.4C3036,191.9,3036.1,195.9,3038.5,197.1L3038.5,197.1z"/>
</g>
<g>
	<path class="st3" d="M1493.8,188.5h4.7V221h-4.7V188.5z M1531.5,188.5h4.3V221h-4.7v-25.3l-10,12.6h-0.9l-10.1-12.6V221h-4.7v-32.5
		h4.4l10.8,13.3L1531.5,188.5z M1553.9,221h-11v-32.5h8.5c2.7,0,4.8,0.3,6.3,1s2.6,1.7,3.4,3c0.8,1.2,1.2,2.7,1.2,4.4
		c0,3.2-1.7,5.5-5,6.9c2.4,0.4,4.3,1.4,5.7,2.9c1.4,1.5,2.1,3.3,2.1,5.4c0,1.7-0.4,3.1-1.3,4.4c-0.9,1.3-2.1,2.4-3.7,3.2
		C1558.4,220.5,1556.4,221,1553.9,221L1553.9,221z M1551.6,192.6h-4.1v9.8h3.1c2.5,0,4.2-0.4,5.3-1.4c1-0.9,1.6-2.1,1.6-3.7
		C1557.5,194.1,1555.5,192.6,1551.6,192.6L1551.6,192.6z M1551.9,206.5h-4.4v10.3h4.6c2.6,0,4.3-0.2,5.2-0.6c0.9-0.4,1.7-1,2.2-1.8
		c0.6-0.9,0.8-1.8,0.8-2.7c0-1-0.2-1.9-0.9-2.8c-0.6-0.8-1.4-1.4-2.5-1.8C1555.9,206.7,1554.2,206.5,1551.9,206.5L1551.9,206.5z
		 M1581,188.3h3.3l14.5,32.7h-4.7l-4.4-9.6h-13.8l-4.1,9.6h-4.7L1581,188.3z M1587.9,207.2l-5.2-11.8l-4.9,11.8H1587.9z
		 M1628.3,188.5h4.4V221h-4.1l-21.7-25v25h-4.4v-32.5h3.7l22,25.2L1628.3,188.5L1628.3,188.5z M1650.1,188.3h3.3L1668,221h-4.7
		l-4.4-9.6H1645l-4.1,9.6h-4.7L1650.1,188.3z M1656.9,207.2l-5.2-11.8l-4.9,11.8H1656.9z M1697.6,213.4v5.2
		c-3.4,1.8-7.4,2.8-11.9,2.8c-3.6,0-6.7-0.7-9.2-2.2c-2.5-1.4-4.5-3.4-6-6c-1.5-2.5-2.2-5.3-2.2-8.3c0-4.7,1.7-8.7,5.1-11.9
		c3.4-3.3,7.5-4.9,12.5-4.9c3.4,0,7.2,0.9,11.4,2.6v5c-3.8-2.2-7.5-3.3-11.1-3.3c-3.7,0-6.8,1.2-9.3,3.5s-3.7,5.3-3.7,8.8
		c0,3.6,1.2,6.5,3.6,8.8s5.5,3.4,9.3,3.4C1690,217,1693.9,215.9,1697.6,213.4L1697.6,213.4z M1719.3,188c5,0,9.2,1.6,12.6,4.8
		c3.3,3.1,5,7.1,5,11.9c0,4.9-1.7,8.8-5,11.9c-3.4,3.1-7.6,4.7-12.8,4.7c-4.9,0-9-1.6-12.2-4.7c-3.3-3.1-4.9-7.1-4.9-11.8
		c0-4.9,1.7-8.9,4.9-12C1710.1,189.6,1714.2,188,1719.3,188L1719.3,188z M1719.5,192.4c-3.7,0-6.8,1.2-9.2,3.5s-3.6,5.3-3.6,8.9
		c0,3.5,1.2,6.4,3.6,8.7s5.4,3.5,9,3.5s6.6-1.2,9.1-3.6c2.5-2.3,3.6-5.3,3.6-8.8c0-3.4-1.2-6.3-3.6-8.7
		C1726,193.6,1723,192.4,1719.5,192.4L1719.5,192.4z"/>
	<path class="st3" d="M1506.3,241.3v-1c-0.7,0.6-1.4,1-1.9,1.2c-0.9,0.4-2,0.7-3.2,0.7c-1.9,0-3.5-0.6-4.7-1.9
		c-1.2-1.2-1.8-2.8-1.8-4.7s0.6-3.5,1.8-4.8c1.2-1.2,2.8-1.8,4.7-1.8c1.2,0,2.2,0.2,3.3,0.6c0.7,0.3,1.3,0.7,1.8,1.2v-1
		c-0.6-0.4-1.1-0.8-1.7-1c-1-0.4-2.1-0.6-3.4-0.6c-2.1,0-4,0.7-5.3,2.1c-1.4,1.4-2.1,3.1-2.1,5.3s0.7,4,2.1,5.4s3.2,2,5.3,2
		c0.2,0,0.4,0,0.6,0s0.4,0,0.5,0c1.3-0.1,2.3-0.5,3.1-1L1506.3,241.3z M1512.4,242.8V242h-4.1v-13.6h-0.8v14.5L1512.4,242.8
		L1512.4,242.8z M1517.3,225.3l-0.4-0.4l-2.3,2.3l0.4,0.4L1517.3,225.3z M1515.6,242.8v-14.5h-0.8v14.5H1515.6z M1530.3,243.1v-14.7
		h-0.9V241l-10.8-12.7v14.6h0.8v-12.3L1530.3,243.1z M1532.9,242.8v-14.5h-0.8v14.5H1532.9z M1547,241.3v-1c-0.7,0.6-1.4,1-1.9,1.2
		c-0.9,0.4-2,0.7-3.1,0.7c-2,0-3.6-0.6-4.8-1.9c-1.2-1.2-1.8-2.8-1.8-4.7s0.6-3.5,1.8-4.8c1.2-1.2,2.8-1.8,4.8-1.8
		c1.1,0,2.1,0.2,3.2,0.6c0.7,0.3,1.3,0.7,1.8,1.2v-1c-0.6-0.4-1.1-0.8-1.7-1c-1-0.4-2.1-0.6-3.3-0.6c-2.2,0-4,0.7-5.4,2.1
		c-1.4,1.4-2.1,3.1-2.1,5.3s0.7,4,2.1,5.4s3.2,2,5.4,2c0.2,0,0.4,0,0.5,0c0.2,0,0.4,0,0.5,0c1.4-0.1,2.3-0.5,3.1-1L1547,241.3z
		 M1558.8,242.8l-5.8-15l-5.8,15h0.8l1.7-4.4h6.6l1.7,4.4H1558.8z M1556,237.7h-5.9l2.9-7.7L1556,237.7z M1568.8,239.1
		c0-1.2-0.4-2.1-1.2-2.9c-0.3-0.3-0.7-0.6-1.1-0.9c-0.5-0.2-1-0.6-1.7-0.8c-1-0.5-1.7-0.9-2-1.1c-0.6-0.6-0.9-1.1-0.9-1.8
		s0.3-1.4,0.9-1.8c0.6-0.4,1.2-0.7,2-0.7c0.7,0,1.4,0.1,1.8,0.4c0.4,0.2,0.7,0.6,0.9,1l0.8-0.3c-0.7-1.3-1.9-1.9-3.6-1.9
		c-1,0-1.9,0.3-2.6,0.9c-0.7,0.6-1,1.4-1,2.4s0.3,1.8,1,2.5c0.4,0.4,1.2,0.8,2.3,1.3c0.6,0.3,1.1,0.6,1.5,0.7
		c0.4,0.2,0.7,0.4,0.9,0.6c0.7,0.6,1,1.4,1,2.4s-0.3,1.8-0.9,2.3s-1.4,0.7-2.5,0.7c-1.8,0-3-0.9-3.5-2.6l-0.8,0.2
		c0.6,2.1,2,3.2,4.3,3.2c0.7,0,1.3-0.1,1.8-0.3C1568,242.2,1568.8,240.9,1568.8,239.1L1568.8,239.1z M1590.7,235.6
		c0-2.2-0.7-4-2.1-5.4s-3.2-2-5.4-2c-2.1,0-4,0.7-5.3,2.1c-1.4,1.4-2.1,3.1-2.1,5.3s0.7,4,2.1,5.4s3.2,2,5.3,2c2.2,0,4-0.7,5.4-2.1
		C1589.9,239.6,1590.7,237.8,1590.7,235.6L1590.7,235.6z M1589.8,235.6c0,2-0.6,3.6-1.8,4.8c-1.2,1.2-2.8,1.8-4.8,1.8
		c-1.9,0-3.5-0.6-4.7-1.9c-1.2-1.2-1.8-2.8-1.8-4.7s0.6-3.5,1.8-4.8c1.2-1.2,2.8-1.8,4.7-1.8c2,0,3.6,0.6,4.8,1.8
		C1589.2,232,1589.8,233.6,1589.8,235.6L1589.8,235.6z M1604.3,235.6c0-2-0.6-3.7-1.7-5c-1.2-1.5-2.8-2.2-4.7-2.2h-4.9v14.5h4.9
		c2,0,3.6-0.7,4.7-2.2C1603.7,239.3,1604.3,237.5,1604.3,235.6L1604.3,235.6z M1603.5,235.6c0,2-0.6,3.6-1.8,4.7
		c-1.1,1.1-2.4,1.7-3.9,1.7h-4.1v-12.8h4.1c1.7,0,3.1,0.7,4.2,2C1603,232.3,1603.5,233.8,1603.5,235.6L1603.5,235.6z M1621.3,235.6
		c0-2.2-0.7-4-2.1-5.4s-3.2-2-5.4-2c-2.2,0-4,0.7-5.3,2.1c-1.4,1.4-2.1,3.1-2.1,5.3s0.7,4,2.1,5.4s3.1,2,5.3,2c2.2,0,4-0.7,5.4-2.1
		C1620.6,239.6,1621.3,237.8,1621.3,235.6L1621.3,235.6z M1620.5,235.6c0,2-0.6,3.6-1.8,4.8c-1.2,1.2-2.8,1.8-4.8,1.8
		c-1.9,0-3.5-0.6-4.7-1.9c-1.3-1.2-1.9-2.8-1.9-4.7s0.7-3.5,1.9-4.8c1.2-1.2,2.8-1.8,4.7-1.8c2,0,3.6,0.6,4.8,1.8
		C1619.9,232,1620.5,233.6,1620.5,235.6L1620.5,235.6z M1635.3,243.1v-14.7h-0.8V241l-10.9-12.7v14.6h0.9v-12.3L1635.3,243.1z
		 M1643.7,229.2v-0.9h-7.2v0.9h3.2v13.6h0.8v-13.6H1643.7z M1657.9,235.6c0-2.2-0.7-4-2.1-5.4s-3.2-2-5.3-2c-2.2,0-4,0.7-5.4,2.1
		c-1.4,1.4-2,3.1-2,5.3s0.7,4,2.1,5.4s3.1,2,5.3,2c2.2,0,4-0.7,5.3-2.1C1657.2,239.6,1657.9,237.8,1657.9,235.6L1657.9,235.6z
		 M1657.1,235.6c0,2-0.6,3.6-1.8,4.8c-1.2,1.2-2.8,1.8-4.8,1.8s-3.5-0.6-4.8-1.9c-1.2-1.2-1.8-2.8-1.8-4.7s0.6-3.5,1.9-4.8
		c1.2-1.2,2.8-1.8,4.7-1.8c2,0,3.6,0.6,4.8,1.8C1656.5,232,1657.1,233.6,1657.1,235.6L1657.1,235.6z M1665.1,242.8V242h-4.1v-13.6
		h-0.8v14.5L1665.1,242.8L1665.1,242.8z M1676.2,225.3l-0.4-0.4l-2.3,2.3l0.4,0.4L1676.2,225.3z M1681.8,235.6c0-2.2-0.7-4-2.1-5.4
		s-3.2-2-5.4-2c-2.2,0-4,0.7-5.3,2.1c-1.4,1.4-2.1,3.1-2.1,5.3s0.7,4,2.1,5.4s3.1,2,5.3,2c2.2,0,4-0.7,5.4-2.1
		C1681.1,239.6,1681.8,237.8,1681.8,235.6L1681.8,235.6z M1681,235.6c0,2-0.6,3.6-1.8,4.8c-1.2,1.2-2.8,1.8-4.8,1.8
		c-1.9,0-3.5-0.6-4.8-1.9c-1.2-1.2-1.8-2.8-1.8-4.7s0.7-3.5,1.9-4.8c1.2-1.2,2.8-1.8,4.7-1.8c2,0,3.6,0.6,4.8,1.8
		C1680.3,232,1681,233.6,1681,235.6L1681,235.6z M1698.5,235.8h-5.7v0.9h4.8c-0.1,1.3-0.7,2.5-1.6,3.4c-1.2,1.4-2.9,2.1-4.9,2.1
		c-1.9,0-3.5-0.6-4.8-1.9c-1.2-1.2-1.8-2.8-1.8-4.7s0.6-3.5,1.8-4.7c1.3-1.3,2.9-1.9,4.8-1.9c2.3,0,4.1,0.9,5.5,2.7l0.7-0.6
		c-1.5-2-3.6-2.9-6.1-2.9c-2.2,0-4,0.7-5.4,2.1c-1.4,1.4-2.1,3.2-2.1,5.3c0,2.2,0.7,4,2.1,5.4s3.2,2,5.4,2c2.3,0,4.1-0.7,5.5-2.2
		C1697.9,239.5,1698.5,237.8,1698.5,235.8L1698.5,235.8z M1701,242.8v-14.5h-0.9v14.5H1701z M1715.1,241.3v-1c-0.8,0.6-1.4,1-2,1.2
		c-0.9,0.4-1.9,0.7-3.1,0.7c-2,0-3.5-0.6-4.8-1.9c-1.2-1.2-1.8-2.8-1.8-4.7s0.6-3.5,1.9-4.8c1.2-1.2,2.8-1.8,4.7-1.8
		c1.1,0,2.2,0.2,3.3,0.6c0.7,0.3,1.3,0.7,1.8,1.2v-1c-0.6-0.4-1.1-0.8-1.7-1c-1-0.4-2.1-0.6-3.4-0.6c-2.2,0-4,0.7-5.4,2.1
		c-1.4,1.4-2,3.1-2,5.3s0.7,4,2.1,5.4s3.1,2,5.3,2c0.2,0,0.4,0,0.6,0s0.3,0,0.5,0c1.3-0.1,2.3-0.5,3.1-1L1715.1,241.3z M1727,242.8
		l-5.8-15l-5.8,15h0.8l1.7-4.4h6.6l1.7,4.4H1727z M1724.1,237.7h-6l2.9-7.7L1724.1,237.7z M1736.8,239.1c0-1.2-0.4-2.1-1.2-2.9
		c-0.2-0.3-0.6-0.6-1.1-0.9c-0.4-0.2-1-0.6-1.7-0.8c-1-0.5-1.7-0.9-2-1.1c-0.6-0.6-0.9-1.1-0.9-1.8s0.2-1.4,0.9-1.8
		c0.5-0.4,1.2-0.7,2-0.7c0.7,0,1.4,0.1,1.8,0.4c0.4,0.2,0.7,0.6,1,1l0.8-0.3c-0.7-1.3-1.9-1.9-3.6-1.9c-1,0-1.9,0.3-2.6,0.9
		c-0.7,0.6-1.1,1.4-1.1,2.4s0.4,1.8,1,2.5c0.4,0.4,1.2,0.8,2.4,1.3c0.6,0.3,1.1,0.6,1.5,0.7c0.4,0.2,0.7,0.4,0.9,0.6
		c0.7,0.6,1.1,1.4,1.1,2.4s-0.3,1.8-0.9,2.3s-1.4,0.7-2.5,0.7c-1.8,0-2.9-0.9-3.4-2.6l-0.9,0.2c0.7,2.1,2.1,3.2,4.3,3.2
		c0.7,0,1.4-0.1,1.8-0.3C1736.1,242.2,1736.8,240.9,1736.8,239.1L1736.8,239.1z"/>
	<path class="st3" d="M1588.7,98.4c0,7.1-5.7,12.7-12.7,12.7s-12.7-5.7-12.7-12.7s5.7-12.7,12.7-12.7
		C1583,85.7,1588.7,91.4,1588.7,98.4L1588.7,98.4z"/>
	<path class="st3" d="M1652.2,154.9c0,5.5-4.4,9.9-9.9,9.9s-9.9-4.4-9.9-9.9s4.4-9.9,9.9-9.9S1652.2,149.5,1652.2,154.9
		L1652.2,154.9z"/>
	<path class="st3" d="M1646.1,119.7c-0.6,1-3.9,0.7-3.9,0.7c-35.6-2.1-57.9,3.1-59.5,17.1c-1.2,10.1,9.3,21.8,19.5,29.8
		c0,0,2,1.3,0.4,2.9c-1.2,1.2-4.1-0.1-4.1-0.1c-19.3-8.3-33.7-21.9-33.1-34.3c0.6-13.6,17-23.2,40-25.4c8.2-0.8,26.1-0.4,38.2,6.3
		C1643.7,116.8,1646.8,118.4,1646.1,119.7L1646.1,119.7z"/>
	<path class="st3" d="M1612.1,168.8c0,0,48,20.9,59.4,1.9c11.3-18.9-21-42.1-29.2-44.9c-5.3-1.8-4.5,1.8-2.8,3.1
		c1.7,1.4,26.5,20.5,18.2,34.2c-7.6,12.6-39,1.8-43.4,1.3C1609.7,163.9,1609.8,167.7,1612.1,168.8L1612.1,168.8z"/>
	<path class="st3" d="M1631.3,129.5c-2.7-2.3-5-1.7-7.4-0.9c-2.2,0.7-6.4,0.9-7.1,0.9s-4.9-0.2-7.1-0.9c-2.4-0.8-4.7-1.4-7.4,0.9
		c-2.7,2.3-2,7.6,1.4,13.8c2.4,4.9,3,6.8,4.7,12.9c0.7,2.8,3.1,2.3,3.7,0.1c0.6-3.5,2.2-6.5,4.7-6.7c2.5,0.2,4.1,3.2,4.7,6.7
		c0.7,2.2,3,2.6,3.7-0.1c1.7-6.1,2.3-8,4.7-12.9C1633.3,137,1634,131.7,1631.3,129.5L1631.3,129.5z M1627.6,126.3
		c1.5,0,3.1,0.6,4.8,2c1.8,1.5,2.5,3.8,2.2,6.7c-0.3,2.6-1.4,5.8-3.2,9.1c-1.2,2.3-1.9,4-2.5,5.8c-0.7,1.8-1.2,3.7-2.1,6.8
		c-0.3,1.2-0.9,2-1.5,2.5c-0.6,0.4-1.3,0.6-1.9,0.6c-0.7,0-1.3-0.2-1.8-0.6c-0.7-0.5-1.3-1.3-1.7-2.3v-0.1v-0.1
		c-0.3-1.7-0.8-3.1-1.5-4.2c-0.4-0.7-1-1.1-1.5-1.2c-0.6,0.1-1,0.5-1.5,1.2c-0.7,1-1.2,2.5-1.5,4.2v0.1v0.1c-0.3,1-0.9,1.8-1.7,2.3
		c-0.6,0.4-1.2,0.6-1.8,0.6c-0.7,0-1.4-0.2-1.9-0.6c-0.7-0.5-1.3-1.4-1.6-2.5c-0.9-3-1.4-5-2.1-6.8c-0.6-1.8-1.4-3.4-2.5-5.8
		c-1.8-3.3-2.9-6.5-3.2-9.1c-0.3-2.9,0.4-5.2,2.2-6.7c1.7-1.4,3.3-2,4.8-2c1.5-0.1,2.8,0.3,4.2,0.7c1,0.3,2.5,0.5,3.8,0.6
		s2.5,0.2,2.8,0.2c0.4,0,1.5-0.1,2.8-0.2c1.4-0.1,2.8-0.3,3.8-0.6l0,0C1624.8,126.6,1626.1,126.2,1627.6,126.3L1627.6,126.3z"/>
</g>
<g id="ihEpww.tif" class="st5">
	<g class="st6">
		<g>
			<path d="M60.9,0.5C67.9,0.3,75,0.6,82,0.7c6,0.2,11.9,0.6,17.5,2.8c11.4,4.4,17.7,12.9,20,24.7c0.7,3.5,0.9,7,1,10.5
				c0.4,11.2,0.4,22.5,0.2,33.7c-0.1,6.2,0,12.5-0.9,18.6c-1.6,10.6-6.6,19.1-16.2,24.4c-4.3,2.4-9.1,3.6-14,4.1
				c-4.8,0.5-9.6,0.4-14.4,0.6c-8.5,0.3-17.1,0.2-25.6,0.1c-6.5-0.1-13.1,0.1-19.6-0.9c-10.6-1.6-19-6.6-24.3-16.2
				c-2.4-4.3-3.6-9.1-4.1-14C1.1,84.3,1.2,79.6,1,74.8c-0.2-8.5-0.2-17.1,0-25.6c0.1-6.5,0-13,0.9-19.4C4,14.3,14.7,3.6,30.2,1.5
				C33.6,1,37,0.8,40.4,0.8C47.2,0.6,54,0.3,60.9,0.5z M60.8,11.8L60.8,11.8c-5.4-0.1-10.9-0.1-16.3-0.1c-3.9,0-7.8,0.1-11.6,0.6
				c-6,0.7-11.3,2.8-15.3,7.6c-3.5,4.2-4.6,9.3-5,14.6C12,41,12.2,47.6,12,54.1c-0.1,7.6,0.1,15.2,0.2,22.7c0,3.9,0.1,7.8,0.6,11.6
				c0.7,6,2.8,11.3,7.6,15.2c4.3,3.5,9.3,4.5,14.6,5c6.4,0.5,12.8,0.3,19.2,0.5c7.6,0.2,15.2-0.1,22.7-0.1c4,0,7.9-0.1,11.9-0.6
				c6-0.7,11.3-2.8,15.3-7.6c3.5-4.2,4.6-9.3,5-14.6c0.5-7.1,0.4-14.3,0.5-21.4c0.1-6.7-0.1-13.4-0.2-20.1c-0.1-5.2,0-10.4-1.1-15.5
				c-1.8-8.5-6.9-13.9-15.4-16.2c-3.6-0.9-7.3-1.1-11-1.2C74.9,11.7,67.8,11.8,60.8,11.8z"/>
			<path d="M91.7,60.4c-0.3,17.2-13.6,30.8-31,30.8S29.9,77.4,30,60.3C30.1,43,43.8,29.6,60.8,29.6C78,29.6,91.5,43.1,91.7,60.4z
				 M60.9,40.6c-11.2,0.3-19.8,8.6-19.8,19.8c0,11.1,8.6,19.7,19.7,19.7s19.7-8.6,19.7-19.7C80.5,49.4,72,41,60.9,40.6z"/>
			<path d="M92.8,35.9c-4.1,0-7.4-3.2-7.4-7.2c-0.1-4.1,3.2-7.4,7.3-7.5c3.9-0.1,7.3,3.3,7.4,7.3C100.1,32.4,96.8,35.9,92.8,35.9z"
				/>
		</g>
	</g>
</g>
<g id="_x33_2Vhzf.tif" class="st5">
	<g class="st6">
		<g>
			<path d="M0.8,76.7c0-10.6,0-21.3,0-31.9c0.6-3.8,0.9-7.6,1.7-11.4C4,25.8,9.4,21,17.1,20.2c9.1-0.8,18.2-1.4,27.4-1.4
				c19.8,0,39.5-0.5,59.3,1.4c7.8,0.7,13.3,5.1,15,12.5c0.8,3.5,1.3,7.1,1.5,10.7c0.7,10.3,0.4,20.7,0.2,31
				c-0.1,5.1-0.6,10.2-2,15.1c-1.8,6.4-6,10.5-12.7,11.5c-8.2,1.2-16.5,1.5-24.7,1.6c-10.4,0.2-20.9,0.1-31.3,0.1
				c-10.9,0-21.8-0.4-32.7-1.5C9.3,100.4,4,95.6,2.4,88C1.6,84.3,1.4,80.4,0.8,76.7z M45.5,59.4c0,5.6,0,11.2,0,16.8
				c0,2.5,0.1,2.6,2.3,1.5c11-5.7,22.1-11.4,33.1-17.2c0.5-0.2,1.1-0.3,1.2-1c0-0.6-0.7-0.7-1.1-1C69.8,52.6,58.6,46.8,47.4,41
				c-1.7-0.9-1.9-0.7-1.9,1.2C45.5,48,45.5,53.7,45.5,59.4z"/>
		</g>
	</g>
</g>
<g id="_x39_LCs1Y.tif">
	<g>
		<g>
			<path class="st1" d="M1.3,99.5c0-0.1,0-0.2,0-0.2c2.8,0.3,5.6,0.4,8.5,0.2c7.4-0.4,14.4-2.4,20.9-6c1.7-1,3.4-2,5-3.2
				c0.2-0.1,0.6-0.2,0.4-0.6c-0.1-0.2-0.4-0.2-0.6-0.2c-0.7-0.1-1.4-0.1-2.1-0.2c-9-1.8-15.3-6.9-18.7-15.5c-0.4-1.1-0.3-1.2,0.9-1
				c3,0.4,5.9,0.3,9-0.5c-2.7-0.7-5.1-1.7-7.3-3.1C10.2,64.5,6.5,57.9,5.9,49.4c-0.1-1.1,0.1-1.2,1.2-0.8c0.3,0.1,0.6,0.3,0.9,0.4
				c2.6,1.1,5.2,1.8,8.3,2c-0.4-0.4-0.6-0.6-0.8-0.7c-9.2-7.1-12-19.8-6.7-30.2c0.6-1.2,0.7-1.3,1.6-0.2
				c8.2,9.7,18.3,16.6,30.3,20.7c5.5,1.9,11.1,3,16.8,3.4c1.3,0.1,1.5-0.2,1.3-1.4c-0.5-2.9-0.5-5.8,0.2-8.7
				c2.1-9.1,7.6-15.4,16.6-18.2c8.9-2.8,17-0.7,24,5.6c0.7,0.6,1.3,0.8,2.2,0.6c4.4-1,8.6-2.6,12.6-4.8c0.4-0.2,0.8-0.7,1.2-0.4
				c0.4,0.3-0.1,0.9-0.2,1.3c-1.8,4.4-4.6,8-8.4,10.8c-0.3,0.2-0.6,0.3-0.8,0.7c1.2-0.2,2.3-0.4,3.3-0.6c3.3-0.6,6.4-1.9,9.5-3
				c0,0.2,0,0.3,0,0.5c-0.2,0.2-0.3,0.3-0.5,0.5c-3,4.3-6.6,8-10.8,11.1c-0.6,0.5-0.7,1-0.7,1.7c0.1,3.5-0.1,7-0.5,10.4
				c-1.3,9.6-4.4,18.7-9.4,27.1C87.3,93.8,73,104.5,54,108.8c-3.4,0.8-6.9,1.1-10.3,1.5c-3.4,0-6.9,0-10.3,0c-0.2,0-0.4-0.1-0.6-0.1
				c-6.2-0.5-12.2-1.8-18-4C10,104.5,5.5,102.3,1.3,99.5z"/>
		</g>
	</g>
</g>
</svg>
